%
M48
M72
T01C0.0236
T02C0.0320
T03C0.0354
T04C0.0360
T05C0.0394
T06C0.0400
T07C0.0440
T08C0.1102
%
T01
X10100Y8870
X11940Y11750
X10020Y12870
X9540Y12230
X8240Y12670
X7620Y11830
X6420Y12150
X6240Y12830
X3840Y13310
X3760Y17470
X6320Y17950
X6820Y19030
X7700Y19030
X6820Y20150
X8660Y21030
X9220Y21990
X10740Y23670
X7860Y23910
X5860Y22310
X4160Y22350
X8960Y17790
X9300Y17030
X11360Y17470
X11760Y15870
X11760Y14990
X9220Y13590
X14720Y15070
X16420Y16230
X16100Y16630
X16500Y17350
X16820Y18230
X17680Y19310
X17540Y20230
X16340Y20790
X15940Y20070
X15140Y20150
X15540Y18950
X18960Y18750
X19760Y17870
X20960Y18110
X21380Y18710
X20500Y19030
X20180Y20230
X19300Y20950
X23060Y20150
X23760Y17550
X23300Y17030
X23540Y16310
X23460Y15750
X23620Y15270
X24240Y14270
X23140Y13670
X22420Y12870
X21860Y12710
X21380Y12390
X21140Y12870
X20640Y14030
X20260Y14710
X21860Y14870
X20880Y16350
X20980Y17350
X19440Y16270
X17700Y15910
X17220Y15350
X16900Y15750
X17540Y14630
X18180Y14470
X18100Y13350
X16640Y13870
X16320Y12270
X18260Y10790
X19300Y11190
X20740Y10870
X19700Y9910
X18660Y9110
X16720Y9070
X13680Y9070
X15120Y6270
X22980Y10630
X23540Y9830
X24260Y9750
X25620Y10230
X27180Y11030
X27620Y10710
X28580Y11950
X28180Y12270
X29380Y10350
X29860Y10350
X30340Y10350
X30820Y10350
X31300Y10350
X32420Y10010
X33220Y10010
X34020Y10010
X34020Y10810
X33220Y10830
X32420Y10830
X32180Y11470
X33120Y12990
X31360Y13550
X28720Y14430
X28100Y16550
X29440Y17550
X27840Y17790
X27460Y19030
X27380Y19750
X26980Y20550
X26580Y21350
X28260Y21190
X26900Y23510
X32020Y21590
X33220Y20550
X34180Y22630
X35600Y20430
X32160Y17870
X35360Y17390
X35440Y13550
X34820Y9790
X35960Y7950
X28500Y9310
X28100Y8830
X28180Y8150
X26580Y8150
X24640Y6430
X24720Y12670
T02
X26100Y12850
X26100Y13850
X26100Y14850
X26100Y15850
X26100Y16850
X26100Y17850
X13700Y17770
X13700Y16770
X13700Y15770
X13700Y14770
X13700Y13770
X13700Y12770
T03
X10726Y9510
X8994Y9510
T04
X4540Y9970
X3540Y9970
X16960Y21850
X17960Y21850
X17960Y22850
X16960Y22850
X18960Y22850
X19960Y22850
X19960Y21850
X18960Y21850
X20960Y21850
X21960Y21850
X21960Y22850
X20960Y22850
X22960Y22850
X22960Y21850
X28560Y22670
X29560Y22670
T05
X27094Y17299
X27094Y13361
X12706Y13261
X12706Y17199
T06
X13080Y19410
X12080Y19410
X12080Y20410
X13080Y20410
X14080Y20410
X14080Y19410
X11080Y19410
X11080Y20410
X28600Y20410
X29600Y20410
X29600Y19410
X28600Y19410
X30600Y19410
X31600Y19410
X31600Y20410
X30600Y20410
T07
X3580Y8090
X5080Y8090
X6580Y8090
T08
X4635Y11687
X4635Y18773
X15020Y22350
X24980Y22350
X35165Y18873
X35165Y11787
M30
