G75*
%MOIN*%
%OFA0B0*%
%FSLAX24Y24*%
%IPPOS*%
%LPD*%
%AMOC8*
5,1,8,0,0,1.08239X$1,22.5*
%
%ADD10C,0.0040*%
D10*
X002467Y002799D02*
X002390Y002876D01*
X002390Y003029D01*
X002467Y003106D01*
X002390Y003260D02*
X002390Y003567D01*
X002390Y003413D02*
X002850Y003413D01*
X002697Y003260D01*
X002774Y003106D02*
X002850Y003029D01*
X002850Y002876D01*
X002774Y002799D01*
X002467Y002799D01*
X003310Y002876D02*
X003310Y003029D01*
X003387Y003106D01*
X003540Y003260D02*
X003540Y003567D01*
X003310Y003490D02*
X003770Y003490D01*
X003540Y003260D01*
X003694Y003106D02*
X003770Y003029D01*
X003770Y002876D01*
X003694Y002799D01*
X003387Y002799D01*
X003310Y002876D01*
X005570Y003690D02*
X006030Y003690D01*
X006030Y003920D01*
X005954Y003997D01*
X005800Y003997D01*
X005723Y003920D01*
X005723Y003690D01*
X005723Y003843D02*
X005570Y003997D01*
X005570Y004150D02*
X005877Y004457D01*
X005954Y004457D01*
X006030Y004381D01*
X006030Y004227D01*
X005954Y004150D01*
X005570Y004150D02*
X005570Y004457D01*
X006430Y004477D02*
X006430Y004170D01*
X006430Y004324D02*
X006890Y004324D01*
X006737Y004170D01*
X006814Y004017D02*
X006660Y004017D01*
X006583Y003940D01*
X006583Y003710D01*
X006430Y003710D02*
X006890Y003710D01*
X006890Y003940D01*
X006814Y004017D01*
X006583Y003863D02*
X006430Y004017D01*
M02*
