G75*
%MOIN*%
%OFA0B0*%
%FSLAX24Y24*%
%IPPOS*%
%LPD*%
%AMOC8*
5,1,8,0,0,1.08239X$1,22.5*
%
%ADD10C,0.0060*%
%ADD11C,0.0050*%
%ADD12C,0.0040*%
%ADD13C,0.0010*%
%ADD14C,0.0098*%
%ADD15R,0.0079X0.0079*%
D10*
X001670Y002580D02*
X001920Y002330D01*
X002420Y002330D01*
X002670Y002580D01*
X002670Y003080D01*
X002420Y003330D01*
X002670Y003580D01*
X002670Y004080D01*
X002420Y004330D01*
X002670Y004580D01*
X002670Y005080D01*
X002420Y005330D01*
X001920Y005330D01*
X001670Y005080D01*
X001670Y004580D01*
X001920Y004330D01*
X001670Y004080D01*
X001670Y003580D01*
X001920Y003330D01*
X001670Y003080D01*
X001670Y002580D01*
X004650Y002230D02*
X004650Y001430D01*
X004750Y001330D01*
X005550Y001330D01*
X005650Y001430D01*
X005750Y001330D01*
X006550Y001330D01*
X006650Y001430D01*
X006650Y002230D01*
X006550Y002330D01*
X005750Y002330D01*
X005650Y002230D01*
X005550Y002330D01*
X004750Y002330D01*
X004650Y002230D01*
D11*
X002095Y001855D02*
X001945Y002005D01*
X002395Y002005D01*
X002395Y001855D02*
X002395Y002155D01*
X001495Y002430D02*
X001420Y002355D01*
X001495Y002430D02*
X001495Y002580D01*
X001420Y002655D01*
X001345Y002655D01*
X001270Y002580D01*
X001270Y002430D01*
X001195Y002355D01*
X001120Y002355D01*
X001045Y002430D01*
X001045Y002580D01*
X001120Y002655D01*
X001045Y002815D02*
X001345Y002815D01*
X001495Y002966D01*
X001345Y003116D01*
X001045Y003116D01*
X001195Y003276D02*
X001045Y003426D01*
X001495Y003426D01*
X001495Y003276D02*
X001495Y003576D01*
X004654Y002964D02*
X004654Y004696D01*
X006646Y004696D01*
X006646Y002964D01*
X004654Y002964D01*
X006496Y004558D02*
X006498Y004566D01*
X006503Y004573D01*
X006510Y004577D01*
X006518Y004578D01*
X006526Y004575D01*
X006532Y004570D01*
X006536Y004562D01*
X006536Y004554D01*
X006532Y004546D01*
X006526Y004541D01*
X006518Y004538D01*
X006510Y004539D01*
X006503Y004543D01*
X006498Y004550D01*
X006496Y004558D01*
X007056Y003963D02*
X007844Y003963D01*
X007844Y003097D02*
X007056Y003097D01*
X007745Y003077D02*
X007738Y003063D01*
X007734Y003048D01*
X007733Y003032D01*
X007736Y003016D01*
X007743Y003002D01*
X007752Y002989D01*
X007765Y002979D01*
X007779Y002972D01*
X007794Y002968D01*
X007810Y002967D01*
X007826Y002970D01*
X007840Y002977D01*
X007853Y002986D01*
X007863Y002999D01*
X007870Y003013D01*
X007874Y003028D01*
X007875Y003044D01*
X007872Y003060D01*
X007865Y003074D01*
X007856Y003087D01*
X007843Y003097D01*
X006440Y001155D02*
X006290Y001155D01*
X006215Y001080D01*
X006215Y000780D01*
X006290Y000705D01*
X006440Y000705D01*
X006515Y000780D01*
X006515Y000930D01*
X006365Y000930D01*
X006515Y001080D02*
X006440Y001155D01*
X006054Y001080D02*
X005979Y001155D01*
X005829Y001155D01*
X005754Y001080D01*
X005754Y000780D01*
X005829Y000705D01*
X005979Y000705D01*
X006054Y000780D01*
X006054Y001080D01*
X005594Y001080D02*
X005594Y000930D01*
X005519Y000855D01*
X005294Y000855D01*
X005444Y000855D02*
X005594Y000705D01*
X005294Y000705D02*
X005294Y001155D01*
X005519Y001155D01*
X005594Y001080D01*
X005134Y001080D02*
X005134Y000930D01*
X005059Y000855D01*
X004833Y000855D01*
X004833Y000705D02*
X004833Y001155D01*
X005059Y001155D01*
X005134Y001080D01*
D12*
X005586Y001795D02*
X005739Y001795D01*
X005816Y001872D01*
X005816Y002255D01*
X005970Y002179D02*
X005970Y002102D01*
X006046Y002025D01*
X006200Y002025D01*
X006277Y001948D01*
X006277Y001872D01*
X006200Y001795D01*
X006046Y001795D01*
X005970Y001872D01*
X006123Y001718D02*
X006123Y002332D01*
X006046Y002255D02*
X006200Y002255D01*
X006277Y002179D01*
X006430Y002102D02*
X006584Y002255D01*
X006584Y001795D01*
X006737Y001795D02*
X006430Y001795D01*
X005970Y002179D02*
X006046Y002255D01*
X005509Y002255D02*
X005509Y001872D01*
X005586Y001795D01*
X004578Y002430D02*
X004271Y002430D01*
X004578Y002737D01*
X004578Y002814D01*
X004501Y002890D01*
X004348Y002890D01*
X004271Y002814D01*
X004150Y002769D02*
X003690Y002769D01*
X003690Y002999D01*
X003766Y003076D01*
X003920Y003076D01*
X003997Y002999D01*
X003997Y002769D01*
X004117Y002737D02*
X004117Y002814D01*
X004041Y002890D01*
X003887Y002890D01*
X003810Y002814D01*
X003657Y002814D02*
X003657Y002660D01*
X003580Y002583D01*
X003350Y002583D01*
X003503Y002583D02*
X003657Y002430D01*
X003810Y002430D02*
X004117Y002737D01*
X003997Y002923D02*
X004150Y003076D01*
X004073Y003230D02*
X004150Y003306D01*
X004150Y003460D01*
X004073Y003537D01*
X003997Y003537D01*
X003920Y003460D01*
X003920Y003383D01*
X003920Y003460D02*
X003843Y003537D01*
X003766Y003537D01*
X003690Y003460D01*
X003690Y003306D01*
X003766Y003230D01*
X003580Y002890D02*
X003350Y002890D01*
X003350Y002430D01*
X003810Y002430D02*
X004117Y002430D01*
X003657Y002814D02*
X003580Y002890D01*
X003696Y003659D02*
X003236Y003659D01*
X003696Y003659D02*
X003696Y003966D01*
X003696Y004120D02*
X003696Y004427D01*
X003696Y004580D02*
X003696Y004810D01*
X003620Y004887D01*
X003313Y004887D01*
X003236Y004810D01*
X003236Y004580D01*
X003696Y004580D01*
X003466Y004273D02*
X003466Y004120D01*
X003236Y004120D02*
X003696Y004120D01*
X003236Y004120D02*
X003236Y004427D01*
X003389Y005041D02*
X003236Y005194D01*
X003696Y005194D01*
X003696Y005041D02*
X003696Y005348D01*
X007260Y005394D02*
X007260Y005087D01*
X007337Y005010D01*
X007490Y005010D01*
X007567Y005087D01*
X007720Y005087D02*
X007797Y005010D01*
X007951Y005010D01*
X008027Y005087D01*
X008027Y005163D01*
X007951Y005240D01*
X007874Y005240D01*
X007951Y005240D02*
X008027Y005317D01*
X008027Y005394D01*
X007951Y005470D01*
X007797Y005470D01*
X007720Y005394D01*
X007567Y005394D02*
X007490Y005470D01*
X007337Y005470D01*
X007260Y005394D01*
X007337Y003430D02*
X007260Y003354D01*
X007260Y003047D01*
X007337Y002970D01*
X007490Y002970D01*
X007567Y003047D01*
X007720Y002970D02*
X008027Y003277D01*
X008027Y003354D01*
X007951Y003430D01*
X007797Y003430D01*
X007720Y003354D01*
X007567Y003354D02*
X007490Y003430D01*
X007337Y003430D01*
X007720Y002970D02*
X008027Y002970D01*
D13*
X007908Y002875D02*
X007808Y002875D01*
X007858Y002875D02*
X007858Y003025D01*
X007808Y002975D01*
X007760Y003025D02*
X007760Y002900D01*
X007735Y002875D01*
X007685Y002875D01*
X007660Y002900D01*
X007660Y003025D01*
D14*
X003903Y003945D03*
D15*
X004110Y004230D03*
M02*
