G75*
%MOIN*%
%OFA0B0*%
%FSLAX24Y24*%
%IPPOS*%
%LPD*%
%AMOC8*
5,1,8,0,0,1.08239X$1,22.5*
%
%ADD10C,0.0600*%
%ADD11R,0.0591X0.0512*%
%ADD12C,0.0560*%
%ADD13R,0.0630X0.0512*%
%ADD14C,0.0396*%
%ADD15C,0.0120*%
%ADD16C,0.0100*%
D10*
X001870Y002830D02*
X002470Y002830D01*
X002470Y003830D02*
X001870Y003830D01*
X001870Y004830D02*
X002470Y004830D01*
D11*
X003270Y003685D03*
X003270Y003015D03*
X004190Y003015D03*
X004190Y003685D03*
D12*
X005150Y002110D02*
X005150Y001550D01*
X006150Y001550D02*
X006150Y002110D01*
D13*
X006010Y003716D03*
X005150Y003696D03*
X005150Y004444D03*
X006010Y004464D03*
D14*
X006630Y004110D03*
X006510Y003270D03*
X006030Y003270D03*
X004950Y003630D03*
X003150Y004350D03*
X006750Y005070D03*
X007350Y005190D03*
X007230Y001830D03*
D15*
X007092Y001968D01*
X007092Y002430D01*
X006732Y002790D01*
X005910Y002790D01*
X005685Y003015D01*
X004190Y003015D01*
X003270Y003015D01*
X003255Y003030D01*
X002910Y003030D01*
X002710Y002830D01*
X002170Y002830D01*
X002315Y003685D02*
X002170Y003830D01*
X002315Y003685D02*
X003270Y003685D01*
X004190Y003685D01*
X004190Y003950D01*
X004710Y004470D01*
X005124Y004470D01*
X005150Y004444D01*
X005990Y004444D01*
X006010Y004464D01*
X006264Y004464D01*
X006630Y004830D01*
X006630Y004950D01*
X006750Y005070D01*
X007110Y004710D01*
X007110Y003510D01*
X006870Y003270D01*
X006510Y003270D01*
D16*
X001800Y002385D02*
X001800Y001440D01*
X004752Y001440D01*
X004740Y001468D01*
X004740Y002192D01*
X004802Y002342D01*
X004918Y002458D01*
X005068Y002520D01*
X005232Y002520D01*
X005382Y002458D01*
X005498Y002342D01*
X005560Y002192D01*
X005560Y001468D01*
X005548Y001440D01*
X005752Y001440D01*
X005740Y001468D01*
X005740Y002192D01*
X005802Y002342D01*
X005918Y002458D01*
X006068Y002520D01*
X006232Y002520D01*
X006382Y002458D01*
X006498Y002342D01*
X006560Y002192D01*
X006560Y001468D01*
X006548Y001440D01*
X008110Y001440D01*
X008110Y005036D01*
X007078Y005036D01*
X007078Y005011D01*
X007300Y004789D01*
X007300Y003431D01*
X007189Y003320D01*
X006949Y003080D01*
X006784Y003080D01*
X006696Y002992D01*
X006575Y002942D01*
X006445Y002942D01*
X006324Y002992D01*
X006270Y003046D01*
X006216Y002992D01*
X006095Y002942D01*
X005965Y002942D01*
X005844Y002992D01*
X005752Y003084D01*
X005702Y003205D01*
X005702Y003330D01*
X005641Y003330D01*
X005590Y003381D01*
X005519Y003310D01*
X005035Y003310D01*
X005015Y003302D01*
X004885Y003302D01*
X004865Y003310D01*
X004781Y003310D01*
X004705Y003386D01*
X004705Y003411D01*
X004672Y003444D01*
X004622Y003565D01*
X004622Y003695D01*
X004672Y003816D01*
X004705Y003849D01*
X004705Y004006D01*
X004769Y004070D01*
X004705Y004134D01*
X004705Y004196D01*
X004559Y004050D01*
X004615Y003994D01*
X004615Y003375D01*
X004605Y003364D01*
X004605Y003363D01*
X004625Y003329D01*
X004635Y003291D01*
X004635Y003065D01*
X004240Y003065D01*
X004240Y002965D01*
X004240Y002609D01*
X004505Y002609D01*
X004543Y002620D01*
X004577Y002639D01*
X004605Y002667D01*
X004625Y002702D01*
X004635Y002740D01*
X004635Y002965D01*
X004240Y002965D01*
X004140Y002965D01*
X004140Y002609D01*
X003875Y002609D01*
X003837Y002620D01*
X003803Y002639D01*
X003775Y002667D01*
X003755Y002702D01*
X003745Y002740D01*
X003745Y002965D01*
X004140Y002965D01*
X004140Y003065D01*
X003745Y003065D01*
X003745Y003291D01*
X003755Y003329D01*
X003775Y003363D01*
X003775Y003364D01*
X003765Y003375D01*
X003765Y003495D01*
X003695Y003495D01*
X003695Y003375D01*
X003685Y003364D01*
X003685Y003363D01*
X003705Y003329D01*
X003715Y003291D01*
X003715Y003065D01*
X003320Y003065D01*
X003320Y002965D01*
X003320Y002609D01*
X003585Y002609D01*
X003623Y002620D01*
X003657Y002639D01*
X003685Y002667D01*
X003705Y002702D01*
X003715Y002740D01*
X003715Y002965D01*
X003320Y002965D01*
X003220Y002965D01*
X003220Y002609D01*
X002955Y002609D01*
X002917Y002620D01*
X002883Y002639D01*
X002880Y002643D01*
X002855Y002594D01*
X002813Y002537D01*
X002763Y002487D01*
X002706Y002445D01*
X002643Y002413D01*
X002575Y002391D01*
X002505Y002380D01*
X002220Y002380D01*
X002220Y002780D01*
X002825Y002780D01*
X002825Y002880D01*
X002220Y002880D01*
X002220Y002780D01*
X002120Y002780D01*
X002120Y002380D01*
X001835Y002380D01*
X001800Y002385D01*
X001800Y002369D02*
X004829Y002369D01*
X004773Y002271D02*
X001800Y002271D01*
X001800Y002172D02*
X004740Y002172D01*
X004740Y002074D02*
X001800Y002074D01*
X001800Y001975D02*
X004740Y001975D01*
X004740Y001877D02*
X001800Y001877D01*
X001800Y001778D02*
X004740Y001778D01*
X004740Y001680D02*
X001800Y001680D01*
X001800Y001581D02*
X004740Y001581D01*
X004740Y001483D02*
X001800Y001483D01*
X002120Y002468D02*
X002220Y002468D01*
X002220Y002566D02*
X002120Y002566D01*
X002120Y002665D02*
X002220Y002665D01*
X002220Y002763D02*
X002120Y002763D01*
X002120Y002880D02*
X002120Y003280D01*
X001835Y003280D01*
X001800Y003275D01*
X001800Y003400D01*
X002556Y003400D01*
X002714Y003465D01*
X002743Y003495D01*
X002845Y003495D01*
X002845Y003375D01*
X002855Y003364D01*
X002855Y003363D01*
X002835Y003329D01*
X002825Y003291D01*
X002825Y003107D01*
X002813Y003123D01*
X002763Y003173D01*
X002706Y003215D01*
X002643Y003247D01*
X002575Y003269D01*
X002505Y003280D01*
X002220Y003280D01*
X002220Y002880D01*
X002120Y002880D01*
X002120Y002960D02*
X002220Y002960D01*
X002220Y002862D02*
X002825Y002862D01*
X002899Y002965D02*
X003220Y002965D01*
X003220Y003065D01*
X002855Y003065D01*
X002887Y003003D01*
X002899Y002965D01*
X002859Y003059D02*
X003220Y003059D01*
X003320Y003059D02*
X004140Y003059D01*
X004240Y003059D02*
X005777Y003059D01*
X005722Y003157D02*
X004635Y003157D01*
X004635Y003256D02*
X005702Y003256D01*
X005617Y003354D02*
X005563Y003354D01*
X006030Y003270D02*
X006030Y003696D01*
X006010Y003716D01*
X006404Y004110D01*
X006630Y004110D01*
X007300Y004142D02*
X008110Y004142D01*
X008110Y004044D02*
X007300Y004044D01*
X007300Y003945D02*
X008110Y003945D01*
X008110Y003847D02*
X007300Y003847D01*
X007300Y003748D02*
X008110Y003748D01*
X008110Y003650D02*
X007300Y003650D01*
X007300Y003551D02*
X008110Y003551D01*
X008110Y003453D02*
X007300Y003453D01*
X007223Y003354D02*
X008110Y003354D01*
X008110Y003256D02*
X007124Y003256D01*
X007026Y003157D02*
X008110Y003157D01*
X008110Y003059D02*
X006763Y003059D01*
X006619Y002960D02*
X008110Y002960D01*
X008110Y002862D02*
X004635Y002862D01*
X004635Y002960D02*
X005921Y002960D01*
X006139Y002960D02*
X006401Y002960D01*
X006358Y002468D02*
X008110Y002468D01*
X008110Y002566D02*
X002834Y002566D01*
X002737Y002468D02*
X004942Y002468D01*
X004602Y002665D02*
X008110Y002665D01*
X008110Y002763D02*
X004635Y002763D01*
X004240Y002763D02*
X004140Y002763D01*
X004140Y002665D02*
X004240Y002665D01*
X004240Y002862D02*
X004140Y002862D01*
X004140Y002960D02*
X004240Y002960D01*
X003745Y002960D02*
X003715Y002960D01*
X003715Y002862D02*
X003745Y002862D01*
X003745Y002763D02*
X003715Y002763D01*
X003682Y002665D02*
X003778Y002665D01*
X003320Y002665D02*
X003220Y002665D01*
X003220Y002763D02*
X003320Y002763D01*
X003320Y002862D02*
X003220Y002862D01*
X003220Y002960D02*
X003320Y002960D01*
X003715Y003157D02*
X003745Y003157D01*
X003745Y003256D02*
X003715Y003256D01*
X003691Y003354D02*
X003769Y003354D01*
X003765Y003453D02*
X003695Y003453D01*
X003695Y003875D02*
X003695Y003994D01*
X003619Y004071D01*
X002921Y004071D01*
X002861Y004010D01*
X002835Y004074D01*
X002714Y004195D01*
X002556Y004260D01*
X001800Y004260D01*
X001800Y004400D01*
X002556Y004400D01*
X002714Y004465D01*
X002835Y004586D01*
X002900Y004744D01*
X002900Y004916D01*
X002850Y005036D01*
X006422Y005036D01*
X006422Y005005D01*
X006440Y004961D01*
X006440Y004909D01*
X006380Y004849D01*
X006379Y004850D01*
X005641Y004850D01*
X005570Y004779D01*
X005519Y004830D01*
X004781Y004830D01*
X004705Y004754D01*
X004705Y004660D01*
X004631Y004660D01*
X004520Y004549D01*
X004042Y004071D01*
X003841Y004071D01*
X003765Y003994D01*
X003765Y003875D01*
X003695Y003875D01*
X003695Y003945D02*
X003765Y003945D01*
X003814Y004044D02*
X003646Y004044D01*
X004113Y004142D02*
X002766Y004142D01*
X002847Y004044D02*
X002894Y004044D01*
X002603Y004241D02*
X004212Y004241D01*
X004310Y004339D02*
X001800Y004339D01*
X002646Y004438D02*
X004409Y004438D01*
X004507Y004536D02*
X002784Y004536D01*
X002854Y004635D02*
X004606Y004635D01*
X004705Y004733D02*
X002895Y004733D01*
X002900Y004832D02*
X005623Y004832D01*
X006422Y005029D02*
X002853Y005029D01*
X002894Y004930D02*
X006440Y004930D01*
X007078Y005029D02*
X008110Y005029D01*
X008110Y004930D02*
X007159Y004930D01*
X007257Y004832D02*
X008110Y004832D01*
X008110Y004733D02*
X007300Y004733D01*
X007300Y004635D02*
X008110Y004635D01*
X008110Y004536D02*
X007300Y004536D01*
X007300Y004438D02*
X008110Y004438D01*
X008110Y004339D02*
X007300Y004339D01*
X007300Y004241D02*
X008110Y004241D01*
X007590Y004950D02*
X007350Y005190D01*
X007590Y004950D02*
X007590Y002910D01*
X007230Y002550D01*
X007230Y001830D01*
X006560Y001877D02*
X008110Y001877D01*
X008110Y001778D02*
X006560Y001778D01*
X006560Y001680D02*
X008110Y001680D01*
X008110Y001581D02*
X006560Y001581D01*
X006560Y001483D02*
X008110Y001483D01*
X008110Y001975D02*
X006560Y001975D01*
X006560Y002074D02*
X008110Y002074D01*
X008110Y002172D02*
X006560Y002172D01*
X006527Y002271D02*
X008110Y002271D01*
X008110Y002369D02*
X006471Y002369D01*
X005942Y002468D02*
X005358Y002468D01*
X005471Y002369D02*
X005829Y002369D01*
X005773Y002271D02*
X005527Y002271D01*
X005560Y002172D02*
X005740Y002172D01*
X005740Y002074D02*
X005560Y002074D01*
X005560Y001975D02*
X005740Y001975D01*
X005740Y001877D02*
X005560Y001877D01*
X005560Y001778D02*
X005740Y001778D01*
X005740Y001680D02*
X005560Y001680D01*
X005560Y001581D02*
X005740Y001581D01*
X005740Y001483D02*
X005560Y001483D01*
X004737Y003354D02*
X004611Y003354D01*
X004615Y003453D02*
X004668Y003453D01*
X004628Y003551D02*
X004615Y003551D01*
X004615Y003650D02*
X004622Y003650D01*
X004615Y003748D02*
X004644Y003748D01*
X004615Y003847D02*
X004702Y003847D01*
X004705Y003945D02*
X004615Y003945D01*
X004566Y004044D02*
X004743Y004044D01*
X004705Y004142D02*
X004651Y004142D01*
X005150Y003696D02*
X005084Y003630D01*
X004950Y003630D01*
X002845Y003453D02*
X002682Y003453D01*
X002849Y003354D02*
X001800Y003354D01*
X002120Y003256D02*
X002220Y003256D01*
X002220Y003157D02*
X002120Y003157D01*
X002120Y003059D02*
X002220Y003059D01*
X002617Y003256D02*
X002825Y003256D01*
X002825Y003157D02*
X002779Y003157D01*
M02*
