%
M48
M72
T01C0.0236
T02C0.0354
T03C0.0360
T04C0.0400
T05C0.0440
T06C0.0470
T07C0.1102
%
T01
X12879Y9523
X14590Y11590
X17390Y12550
X19470Y15510
X20910Y15430
X20910Y14790
X21630Y14790
X22270Y14790
X22270Y15430
X22270Y15990
X21630Y15990
X20910Y15990
X22110Y17430
X22110Y19110
X23870Y19110
X23870Y17430
X24990Y15990
X24990Y15430
X24990Y14950
X23870Y15430
X26110Y15990
X27070Y15990
X27070Y15430
X27070Y14950
X25710Y17430
X25710Y19110
X27510Y20190
X27150Y20870
X27510Y21390
X26790Y22350
X25710Y21270
X24910Y21350
X24630Y21750
X24830Y22230
X23790Y21270
X23310Y21830
X22590Y21270
X21790Y21830
X22830Y24150
X22110Y25070
X24030Y25910
X24110Y27030
X23470Y27190
X23150Y27910
X22830Y28310
X22350Y28790
X22030Y29190
X22430Y29910
X22750Y30790
X23610Y31870
X23470Y32790
X22270Y33350
X21870Y32630
X21070Y32710
X21470Y31510
X19590Y30110
X21550Y27830
X23630Y28470
X24630Y29550
X25370Y28830
X26670Y29070
X26910Y29910
X26890Y30670
X27310Y31270
X26430Y31590
X26110Y32790
X25230Y33510
X24890Y31310
X25690Y30430
X28990Y32710
X29690Y30110
X29230Y29590
X29470Y28870
X29390Y28310
X30150Y27110
X28710Y27030
X28270Y27430
X27990Y25710
X28710Y25350
X29910Y24390
X30510Y23870
X31830Y21790
X33470Y21990
X34750Y21670
X35510Y22150
X35310Y22830
X35630Y21310
X37070Y22070
X38270Y21670
X39870Y21030
X41550Y22070
X42150Y23630
X39150Y23630
X38190Y24390
X37830Y26030
X36510Y24630
X33950Y27190
X34990Y27990
X36030Y28950
X34590Y29270
X33990Y29670
X33550Y28870
X32550Y29910
X33390Y30870
X33390Y31590
X33310Y32310
X32910Y33110
X32510Y33910
X34190Y33750
X32830Y36070
X36870Y35870
X37950Y34150
X39150Y33110
X39990Y32150
X42270Y32510
X40110Y35190
X37110Y29990
X38270Y28710
X31950Y26030
X31590Y27030
X27390Y23910
X26670Y24150
X25110Y24270
X24510Y24270
X24270Y24870
X26310Y25470
X26190Y27270
X18950Y27190
X17310Y27190
X17550Y25550
X17550Y24470
X17550Y23390
X18030Y21350
X17470Y19110
X17470Y18310
X17470Y17350
X18350Y17350
X18430Y18310
X16510Y18310
X16510Y17350
X15070Y19270
X14910Y19990
X12830Y22150
X12990Y23390
X12990Y24470
X12990Y25550
X13070Y26870
X12990Y27950
X13470Y28710
X12990Y30870
X14910Y31270
X16110Y31990
X14590Y33590
X15150Y34550
X16670Y36230
X13790Y36470
X11790Y34870
X10090Y34910
X9270Y30030
X16270Y29350
X16350Y30230
X29390Y18230
X30110Y18230
X30110Y18950
X30910Y18230
X30910Y17350
X30110Y17350
X29390Y17350
X31830Y20470
X34270Y19030
X34270Y17430
X35950Y17430
X35950Y19030
X37710Y19030
X37710Y17430
X38110Y15750
X38990Y15750
X38990Y15270
X38990Y14790
X40750Y15190
X40190Y12272
X38221Y9123
X36430Y11910
X34990Y11910
X34910Y14790
X34910Y15270
X34910Y15750
X34030Y15750
X32990Y15750
X32990Y15270
X32990Y14790
X29950Y12630
X29950Y9590
X25230Y12070
X23950Y12070
X22510Y12070
X20510Y9510
X10510Y17830
X35950Y15270
X37150Y15270
X37150Y14790
X37150Y15750
T02
X10590Y30004
X10590Y31736
T03
X22890Y34410
X23890Y34410
X24890Y34410
X25890Y34410
X25890Y35410
X24890Y35410
X23890Y35410
X22890Y35410
X26890Y35410
X27890Y35410
X28890Y35410
X28890Y34410
X27890Y34410
X26890Y34410
X34490Y35230
X35490Y35230
T04
X35530Y32970
X35530Y31970
X34530Y31970
X34530Y32970
X36530Y32970
X36530Y31970
X37530Y31970
X37530Y32970
X20010Y32970
X20010Y31970
X19010Y31970
X19010Y32970
X18010Y32970
X18010Y31970
X17010Y31970
X17010Y32970
X18570Y26030
X18570Y25030
X19570Y25030
X19570Y26030
X19570Y24030
X18570Y24030
T05
X10330Y23370
X10330Y24870
X10330Y21870
T06
X12100Y15470
X12100Y13470
X23030Y10380
X25030Y10380
X34790Y10300
X36790Y10300
T07
X10992Y10085
X20950Y34910
X30910Y34910
X41600Y10041
M30
