%
M48
M72
T01C0.0236
T02C0.0320
T03C0.0360
T04C0.1102
%
T01
X14100Y7440
X16380Y7800
X17340Y7920
X16340Y8320
X15940Y9920
X15240Y9920
X14540Y9920
X13440Y10320
X14540Y10920
X15540Y11920
X13440Y12120
X10840Y10920
X9240Y10320
X7440Y9720
X6540Y8880
X4940Y10320
X3540Y10920
X3300Y10080
X6540Y10920
X4840Y12120
X9140Y12120
X11240Y9920
X17640Y10320
X18740Y9920
X19729Y10709
X19080Y11560
X18040Y12280
X19480Y13360
X22900Y11880
X23220Y11400
X24740Y11620
X26540Y11820
X27940Y11320
X26340Y10320
X26840Y9420
X28140Y8520
X25140Y8420
X24340Y8720
X23240Y8820
X22340Y9120
X23140Y9420
X22240Y10320
X20840Y9220
X22340Y8420
X25020Y6960
X31140Y7800
X32040Y8420
X33840Y9020
X32240Y9620
X30840Y10020
X33440Y11620
X34540Y12120
X31440Y11820
X34940Y10320
T02
X19820Y8420
X18820Y8420
T03
X18360Y5780
X17360Y5780
X16360Y5780
X16360Y4780
X17360Y4780
X18360Y4780
X19360Y4780
X20360Y4780
X21360Y4780
X22360Y4780
X22360Y5780
X21360Y5780
X20360Y5780
X19360Y5780
T04
X14440Y5280
X24400Y5280
X21860Y12960
X16560Y12960
M30
