G75*
%MOIN*%
%OFA0B0*%
%FSLAX24Y24*%
%IPPOS*%
%LPD*%
%AMOC8*
5,1,8,0,0,1.08239X$1,22.5*
%
%ADD10C,0.0740*%
%ADD11C,0.0640*%
%ADD12C,0.1182*%
%ADD13C,0.0640*%
%ADD14OC8,0.0640*%
%ADD15OC8,0.0680*%
%ADD16R,0.0710X0.0592*%
%ADD17R,0.0671X0.0592*%
%ADD18C,0.0785*%
%ADD19C,0.0680*%
%ADD20C,0.0434*%
%ADD21C,0.0050*%
%ADD22C,0.0476*%
D10*
X010000Y021870D02*
X010660Y021870D01*
X010660Y023370D02*
X010000Y023370D01*
X010000Y024870D02*
X010660Y024870D01*
D11*
X034490Y034950D02*
X034490Y035510D01*
X035490Y035510D02*
X035490Y034950D01*
D12*
X010992Y010085D03*
X020950Y034910D03*
X030910Y034910D03*
X041600Y010041D03*
D13*
X022890Y035410D03*
D14*
X023890Y035410D03*
X024890Y035410D03*
X025890Y035410D03*
X025890Y034410D03*
X024890Y034410D03*
X023890Y034410D03*
X022890Y034410D03*
X026890Y034410D03*
X027890Y034410D03*
X028890Y034410D03*
X028890Y035410D03*
X027890Y035410D03*
X026890Y035410D03*
D15*
X020010Y032970D03*
X020010Y031970D03*
X019010Y031970D03*
X019010Y032970D03*
X018010Y032970D03*
X018010Y031970D03*
X017010Y031970D03*
X017010Y032970D03*
X019570Y026030D03*
X019570Y025030D03*
X018570Y025030D03*
X018570Y024030D03*
X019570Y024030D03*
X034530Y031970D03*
X034530Y032970D03*
X035530Y032970D03*
X035530Y031970D03*
X036530Y031970D03*
X036530Y032970D03*
X037530Y032970D03*
X037530Y031970D03*
D16*
X037950Y020684D03*
X037950Y019936D03*
X036190Y019936D03*
X036190Y020684D03*
X034990Y020684D03*
X034990Y019936D03*
X024990Y019936D03*
X024990Y020684D03*
X023870Y020684D03*
X023870Y019936D03*
X022830Y019936D03*
X022830Y020684D03*
D17*
X023470Y014885D03*
X023470Y014215D03*
X024190Y014215D03*
X024190Y014885D03*
X035550Y014325D03*
X036190Y014325D03*
X036190Y013655D03*
X035550Y013655D03*
D18*
X034790Y010653D02*
X034790Y009948D01*
X036790Y009948D02*
X036790Y010653D01*
X025030Y010733D02*
X025030Y010028D01*
X023030Y010028D02*
X023030Y010733D01*
X012453Y013470D02*
X011748Y013470D01*
X011748Y015470D02*
X012453Y015470D01*
D19*
X018570Y026030D03*
D20*
X010590Y030004D03*
X010590Y031736D03*
D21*
X011842Y024418D02*
X011910Y024424D01*
X011978Y024418D01*
X012045Y024400D01*
X012107Y024371D01*
X012163Y024332D01*
X012212Y024283D01*
X012251Y024227D01*
X012280Y024165D01*
X012298Y024098D01*
X012304Y024030D01*
X012298Y023962D01*
X012280Y023895D01*
X012251Y023833D01*
X012212Y023777D01*
X012163Y023728D01*
X012107Y023689D01*
X012045Y023660D01*
X011978Y023642D01*
X011910Y023636D01*
X011842Y023642D01*
X011775Y023660D01*
X011713Y023689D01*
X011657Y023728D01*
X011608Y023777D01*
X011569Y023833D01*
X011540Y023895D01*
X011522Y023962D01*
X011516Y024030D01*
X011522Y024098D01*
X011540Y024165D01*
X011569Y024227D01*
X011608Y024283D01*
X011657Y024332D01*
X011713Y024371D01*
X011775Y024400D01*
X011842Y024418D01*
X011746Y024386D02*
X012074Y024386D01*
X012154Y024338D02*
X011666Y024338D01*
X011614Y024289D02*
X012206Y024289D01*
X012241Y024241D02*
X011579Y024241D01*
X011553Y024192D02*
X012267Y024192D01*
X012286Y024144D02*
X011534Y024144D01*
X011522Y024095D02*
X012298Y024095D01*
X012302Y024047D02*
X011518Y024047D01*
X011519Y023998D02*
X012301Y023998D01*
X012294Y023950D02*
X011526Y023950D01*
X011539Y023901D02*
X012281Y023901D01*
X012260Y023853D02*
X011560Y023853D01*
X011589Y023804D02*
X012231Y023804D01*
X012190Y023756D02*
X011630Y023756D01*
X011687Y023707D02*
X012133Y023707D01*
X012039Y023659D02*
X011781Y023659D01*
X013762Y010738D02*
X013830Y010744D01*
X013898Y010738D01*
X013965Y010720D01*
X014027Y010691D01*
X014083Y010652D01*
X014132Y010603D01*
X014171Y010547D01*
X014200Y010485D01*
X014218Y010418D01*
X013442Y010418D01*
X013460Y010485D01*
X013489Y010547D01*
X013528Y010603D01*
X013577Y010652D01*
X013633Y010691D01*
X013695Y010720D01*
X013762Y010738D01*
X013672Y010709D02*
X013988Y010709D01*
X014070Y010661D02*
X013590Y010661D01*
X013537Y010612D02*
X014123Y010612D01*
X014159Y010564D02*
X013501Y010564D01*
X013474Y010515D02*
X014186Y010515D01*
X014205Y010467D02*
X013455Y010467D01*
X013442Y010418D02*
X013436Y010350D01*
X013442Y010282D01*
X013460Y010215D01*
X013489Y010153D01*
X013528Y010097D01*
X013577Y010048D01*
X013633Y010009D01*
X013695Y009980D01*
X013762Y009962D01*
X013830Y009956D01*
X013898Y009962D01*
X013965Y009980D01*
X014027Y010009D01*
X014083Y010048D01*
X014132Y010097D01*
X014171Y010153D01*
X014200Y010215D01*
X014218Y010282D01*
X014224Y010350D01*
X014218Y010418D01*
X014222Y010370D02*
X013438Y010370D01*
X013439Y010321D02*
X014221Y010321D01*
X014215Y010273D02*
X013445Y010273D01*
X013458Y010224D02*
X014202Y010224D01*
X014181Y010176D02*
X013479Y010176D01*
X013507Y010127D02*
X014153Y010127D01*
X014113Y010079D02*
X013547Y010079D01*
X013603Y010030D02*
X014057Y010030D01*
X013968Y009982D02*
X013692Y009982D01*
X040442Y016762D02*
X040436Y016830D01*
X040442Y016898D01*
X040460Y016965D01*
X040489Y017027D01*
X040528Y017083D01*
X040577Y017132D01*
X040633Y017171D01*
X040695Y017200D01*
X040762Y017218D01*
X040830Y017224D01*
X040898Y017218D01*
X040965Y017200D01*
X041027Y017171D01*
X041083Y017132D01*
X041132Y017083D01*
X041171Y017027D01*
X041200Y016965D01*
X041218Y016898D01*
X041224Y016830D01*
X041218Y016762D01*
X041200Y016695D01*
X041171Y016633D01*
X041132Y016577D01*
X041083Y016528D01*
X041027Y016489D01*
X040965Y016460D01*
X040898Y016442D01*
X040830Y016436D01*
X040762Y016442D01*
X040695Y016460D01*
X040633Y016489D01*
X040577Y016528D01*
X040528Y016577D01*
X040489Y016633D01*
X040460Y016695D01*
X040442Y016762D01*
X040441Y016772D02*
X041219Y016772D01*
X041223Y016820D02*
X040437Y016820D01*
X040440Y016869D02*
X041220Y016869D01*
X041213Y016917D02*
X040447Y016917D01*
X040460Y016966D02*
X041200Y016966D01*
X041177Y017014D02*
X040483Y017014D01*
X040514Y017063D02*
X041146Y017063D01*
X041104Y017111D02*
X040556Y017111D01*
X040617Y017160D02*
X041043Y017160D01*
X040934Y017208D02*
X040726Y017208D01*
X040453Y016723D02*
X041207Y016723D01*
X041190Y016675D02*
X040470Y016675D01*
X040494Y016626D02*
X041166Y016626D01*
X041132Y016578D02*
X040528Y016578D01*
X040576Y016529D02*
X041084Y016529D01*
X041009Y016481D02*
X040651Y016481D01*
X041070Y025556D02*
X041002Y025562D01*
X040935Y025580D01*
X040873Y025609D01*
X040817Y025648D01*
X040768Y025697D01*
X040729Y025753D01*
X040700Y025815D01*
X040682Y025882D01*
X040676Y025950D01*
X040682Y026018D01*
X040700Y026085D01*
X040729Y026147D01*
X040768Y026203D01*
X040817Y026252D01*
X040873Y026291D01*
X040935Y026320D01*
X041002Y026338D01*
X041070Y026344D01*
X041138Y026338D01*
X041205Y026320D01*
X041267Y026291D01*
X041323Y026252D01*
X041372Y026203D01*
X041411Y026147D01*
X041440Y026085D01*
X041458Y026018D01*
X041464Y025950D01*
X041458Y025882D01*
X041440Y025815D01*
X041411Y025753D01*
X041372Y025697D01*
X041323Y025648D01*
X041267Y025609D01*
X041205Y025580D01*
X041138Y025562D01*
X041070Y025556D01*
X040896Y025599D02*
X041244Y025599D01*
X041321Y025647D02*
X040819Y025647D01*
X040770Y025696D02*
X041370Y025696D01*
X041405Y025744D02*
X040735Y025744D01*
X040711Y025793D02*
X041429Y025793D01*
X041447Y025841D02*
X040693Y025841D01*
X040682Y025890D02*
X041458Y025890D01*
X041463Y025938D02*
X040677Y025938D01*
X040680Y025987D02*
X041460Y025987D01*
X041453Y026035D02*
X040687Y026035D01*
X040700Y026084D02*
X041440Y026084D01*
X041418Y026132D02*
X040722Y026132D01*
X040753Y026181D02*
X041387Y026181D01*
X041346Y026229D02*
X040794Y026229D01*
X040854Y026278D02*
X041286Y026278D01*
X041182Y026326D02*
X040958Y026326D01*
D22*
X038190Y024390D03*
X039150Y023630D03*
X038270Y021670D03*
X037070Y022070D03*
X035510Y022150D03*
X035310Y022830D03*
X034750Y021670D03*
X035630Y021310D03*
X033470Y021990D03*
X031830Y021790D03*
X031830Y020470D03*
X030110Y018950D03*
X030110Y018230D03*
X029390Y018230D03*
X029390Y017350D03*
X030110Y017350D03*
X030910Y017350D03*
X030910Y018230D03*
X032990Y015750D03*
X032990Y015270D03*
X032990Y014790D03*
X034030Y015750D03*
X034910Y015750D03*
X034910Y015270D03*
X034910Y014790D03*
X035950Y015270D03*
X037150Y015270D03*
X037150Y014790D03*
X037150Y015750D03*
X038110Y015750D03*
X038990Y015750D03*
X038990Y015270D03*
X038990Y014790D03*
X040750Y015190D03*
X037710Y017430D03*
X037710Y019030D03*
X035950Y019030D03*
X035950Y017430D03*
X034270Y017430D03*
X034270Y019030D03*
X030510Y023870D03*
X029910Y024390D03*
X028710Y025350D03*
X027990Y025710D03*
X028710Y027030D03*
X028270Y027430D03*
X029390Y028310D03*
X029470Y028870D03*
X029230Y029590D03*
X029690Y030110D03*
X027310Y031270D03*
X026890Y030670D03*
X026910Y029910D03*
X026670Y029070D03*
X025370Y028830D03*
X024630Y029550D03*
X025690Y030430D03*
X024890Y031310D03*
X023610Y031870D03*
X022750Y030790D03*
X021470Y031510D03*
X021870Y032630D03*
X021070Y032710D03*
X022270Y033350D03*
X023470Y032790D03*
X025230Y033510D03*
X026110Y032790D03*
X026430Y031590D03*
X028990Y032710D03*
X032510Y033910D03*
X032910Y033110D03*
X033310Y032310D03*
X033390Y031590D03*
X033390Y030870D03*
X032550Y029910D03*
X033550Y028870D03*
X033990Y029670D03*
X034590Y029270D03*
X034990Y027990D03*
X036030Y028950D03*
X037110Y029990D03*
X038270Y028710D03*
X037830Y026030D03*
X036510Y024630D03*
X033950Y027190D03*
X031950Y026030D03*
X031590Y027030D03*
X030150Y027110D03*
X027390Y023910D03*
X026670Y024150D03*
X025110Y024270D03*
X024510Y024270D03*
X024270Y024870D03*
X024030Y025910D03*
X024110Y027030D03*
X023470Y027190D03*
X023150Y027910D03*
X022830Y028310D03*
X022350Y028790D03*
X022030Y029190D03*
X022430Y029910D03*
X023630Y028470D03*
X021550Y027830D03*
X018950Y027190D03*
X017310Y027190D03*
X017550Y025550D03*
X017550Y024470D03*
X017550Y023390D03*
X018030Y021350D03*
X017470Y019110D03*
X017470Y018310D03*
X017470Y017350D03*
X018350Y017350D03*
X018430Y018310D03*
X016510Y018310D03*
X016510Y017350D03*
X015070Y019270D03*
X014910Y019990D03*
X012830Y022150D03*
X012990Y023390D03*
X012990Y024470D03*
X012990Y025550D03*
X013070Y026870D03*
X012990Y027950D03*
X013470Y028710D03*
X012990Y030870D03*
X014910Y031270D03*
X016110Y031990D03*
X014590Y033590D03*
X015150Y034550D03*
X016670Y036230D03*
X013790Y036470D03*
X011790Y034870D03*
X010090Y034910D03*
X009270Y030030D03*
X016270Y029350D03*
X016350Y030230D03*
X019590Y030110D03*
X022110Y025070D03*
X022830Y024150D03*
X024830Y022230D03*
X024630Y021750D03*
X024910Y021350D03*
X025710Y021270D03*
X027150Y020870D03*
X027510Y020190D03*
X027510Y021390D03*
X026790Y022350D03*
X023790Y021270D03*
X023310Y021830D03*
X022590Y021270D03*
X021790Y021830D03*
X022110Y019110D03*
X022110Y017430D03*
X022270Y015990D03*
X021630Y015990D03*
X020910Y015990D03*
X020910Y015430D03*
X020910Y014790D03*
X021630Y014790D03*
X022270Y014790D03*
X022270Y015430D03*
X023870Y015430D03*
X024990Y015430D03*
X024990Y014950D03*
X024990Y015990D03*
X026110Y015990D03*
X027070Y015990D03*
X027070Y015430D03*
X027070Y014950D03*
X025710Y017430D03*
X025710Y019110D03*
X023870Y019110D03*
X023870Y017430D03*
X019470Y015510D03*
X017390Y012550D03*
X014590Y011590D03*
X012879Y009523D03*
X020510Y009510D03*
X022510Y012070D03*
X023950Y012070D03*
X025230Y012070D03*
X029950Y012630D03*
X029950Y009590D03*
X034990Y011910D03*
X036430Y011910D03*
X038221Y009123D03*
X040190Y012272D03*
X039870Y021030D03*
X041550Y022070D03*
X042150Y023630D03*
X039990Y032150D03*
X039150Y033110D03*
X037950Y034150D03*
X036870Y035870D03*
X034190Y033750D03*
X032830Y036070D03*
X040110Y035190D03*
X042270Y032510D03*
X026190Y027270D03*
X026310Y025470D03*
X010510Y017830D03*
M02*
