G75*
%MOIN*%
%OFA0B0*%
%FSLAX24Y24*%
%IPPOS*%
%LPD*%
%AMOC8*
5,1,8,0,0,1.08239X$1,22.5*
%
%ADD10OC8,0.0520*%
%ADD11C,0.0560*%
%ADD12OC8,0.0560*%
%ADD13R,0.1181X0.0630*%
%ADD14R,0.0630X0.0512*%
%ADD15R,0.0512X0.0591*%
%ADD16R,0.0591X0.0512*%
%ADD17R,0.0512X0.0630*%
%ADD18R,0.0283X0.0236*%
%ADD19C,0.0396*%
%ADD20C,0.0240*%
%ADD21C,0.0320*%
%ADD22C,0.0160*%
%ADD23C,0.0120*%
D10*
X018820Y008420D03*
X019820Y008420D03*
D11*
X016360Y005780D03*
D12*
X017360Y005780D03*
X018360Y005780D03*
X019360Y005780D03*
X020360Y005780D03*
X021360Y005780D03*
X022360Y005780D03*
X022360Y004780D03*
X021360Y004780D03*
X020360Y004780D03*
X019360Y004780D03*
X018360Y004780D03*
X017360Y004780D03*
X016360Y004780D03*
D13*
X022774Y007740D03*
X024506Y007740D03*
D14*
X018640Y012086D03*
X018640Y012834D03*
D15*
X021605Y006520D03*
X022275Y006520D03*
D16*
X019720Y012145D03*
X019720Y012815D03*
D17*
X016114Y009020D03*
X015366Y009020D03*
D18*
X018649Y013846D03*
X019031Y013846D03*
X019413Y013846D03*
X019795Y013846D03*
D19*
X019480Y013360D03*
X018040Y012280D03*
X019080Y011560D03*
X019729Y010709D03*
X018740Y009920D03*
X017640Y010320D03*
X015940Y009920D03*
X015240Y009920D03*
X014540Y009920D03*
X013440Y010320D03*
X014540Y010920D03*
X015540Y011920D03*
X013440Y012120D03*
X010840Y010920D03*
X009240Y010320D03*
X007440Y009720D03*
X006540Y008880D03*
X004940Y010320D03*
X003540Y010920D03*
X003300Y010080D03*
X006540Y010920D03*
X004840Y012120D03*
X009140Y012120D03*
X011240Y009920D03*
X016340Y008320D03*
X017340Y007920D03*
X016380Y007800D03*
X014100Y007440D03*
X020840Y009220D03*
X022340Y009120D03*
X023140Y009420D03*
X023240Y008820D03*
X022340Y008420D03*
X024340Y008720D03*
X025140Y008420D03*
X026840Y009420D03*
X026340Y010320D03*
X027940Y011320D03*
X026540Y011820D03*
X024740Y011620D03*
X023220Y011400D03*
X022900Y011880D03*
X022240Y010320D03*
X028140Y008520D03*
X031140Y007800D03*
X032040Y008420D03*
X033840Y009020D03*
X032240Y009620D03*
X030840Y010020D03*
X033440Y011620D03*
X034540Y012120D03*
X031440Y011820D03*
X034940Y010320D03*
X025020Y006960D03*
D20*
X024506Y007740D02*
X024320Y007740D01*
X023240Y008820D01*
X022774Y008686D02*
X022340Y009120D01*
X022340Y009220D01*
X023040Y009920D01*
X023040Y010720D01*
X022840Y010920D01*
X024740Y010920D01*
X027940Y010920D01*
X032740Y010920D01*
X033440Y011620D01*
X034540Y012120D02*
X031440Y012120D01*
X031440Y011820D01*
X031440Y012120D02*
X026540Y012120D01*
X023140Y012120D01*
X022900Y011880D01*
X022340Y011320D01*
X019840Y011320D01*
X019780Y011260D01*
X019600Y011080D01*
X018400Y011080D01*
X018160Y011320D01*
X017800Y011320D01*
X015740Y011320D01*
X015540Y011520D01*
X015540Y011920D01*
X015340Y012120D01*
X013440Y012120D01*
X009140Y012120D01*
X004840Y012120D01*
X006540Y010920D02*
X010840Y010920D01*
X014540Y010920D01*
X017940Y010920D01*
X018240Y010620D01*
X019040Y010620D01*
X019440Y010220D01*
X021540Y010220D01*
X022240Y010920D01*
X022840Y010920D01*
X026540Y011820D02*
X026540Y012120D01*
X022774Y008686D02*
X022774Y007740D01*
D21*
X022260Y007740D01*
X021640Y007120D01*
X021640Y006555D01*
X021605Y006520D01*
X021360Y006275D01*
X021360Y005780D01*
X021360Y004780D01*
X022360Y004780D02*
X022360Y005780D01*
X022360Y006435D01*
X022275Y006520D01*
X022375Y006620D01*
X023640Y006620D01*
X024506Y007486D01*
X024440Y007674D02*
X024506Y007740D01*
X022774Y007740D02*
X022640Y007606D01*
D22*
X019820Y008420D02*
X019820Y008840D01*
X018740Y009920D01*
X015940Y009920D01*
X019040Y010620D02*
X019129Y010709D01*
X019729Y010709D01*
X027940Y010920D02*
X027940Y011320D01*
D23*
X008867Y005607D02*
X008581Y006155D01*
X008001Y006939D01*
X007308Y007624D01*
X006518Y008195D01*
X006518Y008195D01*
X005650Y008639D01*
X004724Y008944D01*
X004337Y009008D01*
X004331Y009011D01*
X004237Y009024D01*
X004225Y009026D01*
X004077Y009056D01*
X003787Y009168D01*
X003530Y009344D01*
X003321Y009575D01*
X003170Y009847D01*
X003085Y010147D01*
X003070Y010297D01*
X003070Y012170D01*
X004482Y012170D01*
X004482Y012049D01*
X004536Y011917D01*
X004637Y011816D01*
X004769Y011762D01*
X004911Y011762D01*
X005043Y011816D01*
X005066Y011840D01*
X008914Y011840D01*
X008937Y011816D01*
X009069Y011762D01*
X009211Y011762D01*
X009343Y011816D01*
X009366Y011840D01*
X013214Y011840D01*
X013237Y011816D01*
X013369Y011762D01*
X013511Y011762D01*
X013643Y011816D01*
X013666Y011840D01*
X015186Y011840D01*
X015236Y011717D01*
X015260Y011694D01*
X015260Y011464D01*
X015303Y011361D01*
X015581Y011083D01*
X015684Y011040D01*
X018044Y011040D01*
X018163Y010921D01*
X018241Y010843D01*
X018344Y010800D01*
X019656Y010800D01*
X019759Y010843D01*
X019939Y011023D01*
X019956Y011040D01*
X022396Y011040D01*
X022499Y011083D01*
X022938Y011522D01*
X022971Y011522D01*
X023103Y011576D01*
X023204Y011677D01*
X023258Y011809D01*
X023258Y011840D01*
X026182Y011840D01*
X026182Y011749D01*
X026236Y011617D01*
X026337Y011516D01*
X026469Y011462D01*
X026611Y011462D01*
X026743Y011516D01*
X026844Y011617D01*
X026898Y011749D01*
X026898Y011840D01*
X031082Y011840D01*
X031082Y011749D01*
X031136Y011617D01*
X031237Y011516D01*
X031369Y011462D01*
X031511Y011462D01*
X031643Y011516D01*
X031744Y011617D01*
X031798Y011749D01*
X031798Y011840D01*
X034314Y011840D01*
X034337Y011816D01*
X034469Y011762D01*
X034611Y011762D01*
X034743Y011816D01*
X034844Y011917D01*
X034898Y012049D01*
X034898Y012170D01*
X035010Y012170D01*
X035010Y010678D01*
X034869Y010678D01*
X034737Y010624D01*
X034654Y010540D01*
X031076Y010540D01*
X031023Y010558D01*
X030988Y010540D01*
X026626Y010540D01*
X026543Y010624D01*
X026411Y010678D01*
X026269Y010678D01*
X026137Y010624D01*
X026054Y010540D01*
X023649Y010540D01*
X023520Y010411D01*
X023320Y010211D01*
X023320Y009911D01*
X023187Y009778D01*
X023069Y009778D01*
X022937Y009724D01*
X022836Y009623D01*
X022782Y009491D01*
X022782Y009349D01*
X022836Y009217D01*
X022937Y009116D01*
X023003Y009089D01*
X022936Y009023D01*
X022882Y008891D01*
X022882Y008749D01*
X022936Y008617D01*
X023037Y008516D01*
X023169Y008462D01*
X023202Y008462D01*
X023756Y007908D01*
X023756Y007359D01*
X023841Y007273D01*
X023507Y006940D01*
X022632Y006940D01*
X022597Y006975D01*
X021952Y006975D01*
X021935Y006958D01*
X021923Y006964D01*
X021882Y006975D01*
X021665Y006975D01*
X021665Y006580D01*
X021545Y006580D01*
X021545Y006460D01*
X021189Y006460D01*
X021189Y006220D01*
X021178Y006220D01*
X020920Y005962D01*
X020920Y005810D01*
X021330Y005810D01*
X021330Y005750D01*
X021390Y005750D01*
X021390Y005810D01*
X021800Y005810D01*
X021800Y005962D01*
X021698Y006065D01*
X021882Y006065D01*
X021923Y006076D01*
X021935Y006082D01*
X021952Y006065D01*
X022022Y006065D01*
X021920Y005962D01*
X021920Y005598D01*
X022040Y005478D01*
X022040Y005082D01*
X021920Y004962D01*
X021920Y004598D01*
X022168Y004350D01*
X021552Y004350D01*
X021800Y004598D01*
X021800Y004750D01*
X021390Y004750D01*
X021390Y004810D01*
X021330Y004810D01*
X021330Y005220D01*
X021178Y005220D01*
X020920Y004962D01*
X020920Y004810D01*
X021330Y004810D01*
X021330Y004750D01*
X020920Y004750D01*
X020920Y004598D01*
X021168Y004350D01*
X020552Y004350D01*
X020800Y004598D01*
X020800Y004962D01*
X020542Y005220D01*
X020178Y005220D01*
X019920Y004962D01*
X019920Y004598D01*
X020168Y004350D01*
X019552Y004350D01*
X019800Y004598D01*
X019800Y004962D01*
X019542Y005220D01*
X019178Y005220D01*
X019060Y005102D01*
X019060Y005458D01*
X019178Y005340D01*
X019542Y005340D01*
X019800Y005598D01*
X019800Y005962D01*
X019797Y005966D01*
X020231Y006400D01*
X020931Y006400D01*
X021131Y006600D01*
X021189Y006658D01*
X021189Y006580D01*
X021545Y006580D01*
X021545Y006975D01*
X021328Y006975D01*
X021288Y006964D01*
X021260Y006948D01*
X021260Y009111D01*
X021198Y009173D01*
X021198Y009291D01*
X021144Y009423D01*
X021043Y009524D01*
X020911Y009578D01*
X020769Y009578D01*
X020637Y009524D01*
X020536Y009423D01*
X020482Y009291D01*
X020482Y009149D01*
X020536Y009017D01*
X020637Y008916D01*
X020769Y008862D01*
X020820Y008862D01*
X020820Y006911D01*
X020749Y006840D01*
X020049Y006840D01*
X019920Y006711D01*
X019429Y006220D01*
X019178Y006220D01*
X019060Y006102D01*
X019060Y006611D01*
X018760Y006911D01*
X018631Y007040D01*
X017631Y007040D01*
X017060Y007611D01*
X017060Y009311D01*
X016631Y009740D01*
X015631Y009740D01*
X015576Y009795D01*
X015598Y009849D01*
X015598Y009991D01*
X015553Y010100D01*
X017354Y010100D01*
X017437Y010016D01*
X017569Y009962D01*
X017711Y009962D01*
X017843Y010016D01*
X017926Y010100D01*
X018749Y010100D01*
X019120Y009729D01*
X019249Y009600D01*
X021720Y009600D01*
X021720Y008729D01*
X021982Y008467D01*
X021982Y008349D01*
X022036Y008217D01*
X022078Y008176D01*
X022055Y008153D01*
X022034Y008117D01*
X022023Y008076D01*
X022023Y007800D01*
X022714Y007800D01*
X022714Y008215D01*
X022641Y008215D01*
X022644Y008217D01*
X022698Y008349D01*
X022698Y008491D01*
X022644Y008623D01*
X022543Y008724D01*
X022411Y008778D01*
X022293Y008778D01*
X022160Y008911D01*
X022160Y009629D01*
X022260Y009729D01*
X022331Y009800D01*
X022460Y009929D01*
X022460Y010034D01*
X022544Y010117D01*
X022598Y010249D01*
X022598Y010391D01*
X022544Y010523D01*
X022443Y010624D01*
X022311Y010678D01*
X022169Y010678D01*
X022037Y010624D01*
X021936Y010523D01*
X021882Y010391D01*
X021882Y010249D01*
X021936Y010117D01*
X021981Y010072D01*
X021949Y010040D01*
X019431Y010040D01*
X018931Y010540D01*
X017926Y010540D01*
X017843Y010624D01*
X017711Y010678D01*
X017569Y010678D01*
X017437Y010624D01*
X017354Y010540D01*
X013726Y010540D01*
X013643Y010624D01*
X013511Y010678D01*
X013369Y010678D01*
X013237Y010624D01*
X013154Y010540D01*
X009526Y010540D01*
X009443Y010624D01*
X009311Y010678D01*
X009169Y010678D01*
X009037Y010624D01*
X008954Y010540D01*
X005226Y010540D01*
X005143Y010624D01*
X005011Y010678D01*
X004869Y010678D01*
X004737Y010624D01*
X004636Y010523D01*
X004582Y010391D01*
X004582Y010289D01*
X003898Y010973D01*
X003898Y010991D01*
X003844Y011123D01*
X003743Y011224D01*
X003611Y011278D01*
X003469Y011278D01*
X003337Y011224D01*
X003236Y011123D01*
X003182Y010991D01*
X003182Y010849D01*
X003236Y010717D01*
X003337Y010616D01*
X003469Y010562D01*
X003611Y010562D01*
X003665Y010584D01*
X004420Y009829D01*
X004549Y009700D01*
X006549Y009700D01*
X007249Y009000D01*
X010749Y009000D01*
X010820Y008929D01*
X010820Y008929D01*
X010949Y008800D01*
X012168Y008800D01*
X011577Y008550D01*
X010804Y008072D01*
X010113Y007481D01*
X009521Y006791D01*
X009042Y006019D01*
X009042Y006019D01*
X008867Y005607D01*
X008889Y005659D02*
X008840Y005659D01*
X008778Y005778D02*
X008940Y005778D01*
X008990Y005896D02*
X008716Y005896D01*
X008654Y006015D02*
X009040Y006015D01*
X009113Y006133D02*
X008592Y006133D01*
X008581Y006155D02*
X008581Y006155D01*
X008509Y006252D02*
X009186Y006252D01*
X009260Y006370D02*
X008421Y006370D01*
X008334Y006489D02*
X009333Y006489D01*
X009407Y006607D02*
X008246Y006607D01*
X008158Y006726D02*
X009480Y006726D01*
X009521Y006791D02*
X009521Y006791D01*
X009566Y006844D02*
X008071Y006844D01*
X008001Y006939D02*
X008001Y006939D01*
X007977Y006963D02*
X009668Y006963D01*
X009770Y007081D02*
X007857Y007081D01*
X007737Y007200D02*
X009871Y007200D01*
X009973Y007318D02*
X007617Y007318D01*
X007498Y007437D02*
X010075Y007437D01*
X010113Y007481D02*
X010113Y007481D01*
X010199Y007555D02*
X007378Y007555D01*
X007240Y007674D02*
X010338Y007674D01*
X010476Y007792D02*
X007076Y007792D01*
X006912Y007911D02*
X010615Y007911D01*
X010753Y008029D02*
X006748Y008029D01*
X006584Y008148D02*
X010926Y008148D01*
X010804Y008072D02*
X010804Y008072D01*
X011117Y008266D02*
X006380Y008266D01*
X006148Y008385D02*
X011309Y008385D01*
X011501Y008503D02*
X005916Y008503D01*
X005684Y008622D02*
X011746Y008622D01*
X011577Y008550D02*
X011577Y008550D01*
X012026Y008740D02*
X005342Y008740D01*
X004982Y008859D02*
X010890Y008859D01*
X010772Y008977D02*
X004522Y008977D01*
X003974Y009096D02*
X007153Y009096D01*
X007035Y009214D02*
X003720Y009214D01*
X003547Y009333D02*
X006916Y009333D01*
X006798Y009451D02*
X003433Y009451D01*
X003325Y009570D02*
X006679Y009570D01*
X006561Y009688D02*
X003258Y009688D01*
X003192Y009807D02*
X004442Y009807D01*
X004324Y009925D02*
X003148Y009925D01*
X003114Y010044D02*
X004205Y010044D01*
X004087Y010162D02*
X003084Y010162D01*
X003072Y010281D02*
X003968Y010281D01*
X003850Y010399D02*
X003070Y010399D01*
X003070Y010518D02*
X003731Y010518D01*
X004235Y010636D02*
X004767Y010636D01*
X004634Y010518D02*
X004354Y010518D01*
X004472Y010399D02*
X004585Y010399D01*
X004940Y010320D02*
X009240Y010320D01*
X013440Y010320D01*
X014640Y010320D01*
X017640Y010320D01*
X018840Y010320D01*
X019340Y009820D01*
X022040Y009820D01*
X021940Y009720D01*
X021940Y008820D01*
X022340Y008420D01*
X022664Y008266D02*
X023398Y008266D01*
X023385Y008215D02*
X022834Y008215D01*
X022834Y007800D01*
X023524Y007800D01*
X023524Y008076D01*
X023514Y008117D01*
X023492Y008153D01*
X023463Y008183D01*
X023426Y008204D01*
X023385Y008215D01*
X023496Y008148D02*
X023516Y008148D01*
X023524Y008029D02*
X023635Y008029D01*
X023524Y007911D02*
X023753Y007911D01*
X023756Y007792D02*
X022834Y007792D01*
X022834Y007800D02*
X022834Y007680D01*
X023524Y007680D01*
X023524Y007404D01*
X023514Y007363D01*
X023492Y007327D01*
X023463Y007297D01*
X023426Y007276D01*
X023385Y007265D01*
X022834Y007265D01*
X022834Y007680D01*
X022714Y007680D01*
X022714Y007265D01*
X022162Y007265D01*
X022122Y007276D01*
X022085Y007297D01*
X022055Y007327D01*
X022034Y007363D01*
X022023Y007404D01*
X022023Y007680D01*
X022714Y007680D01*
X022714Y007800D01*
X022834Y007800D01*
X022834Y007911D02*
X022714Y007911D01*
X022714Y008029D02*
X022834Y008029D01*
X022834Y008148D02*
X022714Y008148D01*
X022698Y008385D02*
X023279Y008385D01*
X023069Y008503D02*
X022693Y008503D01*
X022644Y008622D02*
X022935Y008622D01*
X022886Y008740D02*
X022503Y008740D01*
X022213Y008859D02*
X022882Y008859D01*
X022917Y008977D02*
X022160Y008977D01*
X022160Y009096D02*
X022988Y009096D01*
X022840Y009214D02*
X022160Y009214D01*
X022160Y009333D02*
X022789Y009333D01*
X022782Y009451D02*
X022160Y009451D01*
X022160Y009570D02*
X022814Y009570D01*
X022902Y009688D02*
X022219Y009688D01*
X022338Y009807D02*
X023215Y009807D01*
X023320Y009925D02*
X022456Y009925D01*
X022470Y010044D02*
X023320Y010044D01*
X023320Y010162D02*
X022562Y010162D01*
X022598Y010281D02*
X023389Y010281D01*
X023508Y010399D02*
X022595Y010399D01*
X022546Y010518D02*
X023626Y010518D01*
X023740Y010320D02*
X026340Y010320D01*
X031040Y010320D01*
X030840Y010220D01*
X030840Y010020D01*
X031198Y010044D02*
X034710Y010044D01*
X034737Y010016D02*
X034869Y009962D01*
X034955Y009962D01*
X034872Y009747D01*
X034696Y009490D01*
X034465Y009281D01*
X034193Y009130D01*
X033893Y009045D01*
X033743Y009030D01*
X033739Y009030D01*
X033646Y009033D01*
X033637Y009030D01*
X033629Y009030D01*
X033543Y008994D01*
X033158Y008850D01*
X033158Y008850D01*
X032425Y008438D01*
X032398Y008416D01*
X032398Y008491D01*
X032344Y008623D01*
X032243Y008724D01*
X032111Y008778D01*
X031969Y008778D01*
X031837Y008724D01*
X031754Y008640D01*
X030431Y008640D01*
X029560Y009511D01*
X029560Y009511D01*
X029431Y009640D01*
X027649Y009640D01*
X027249Y009240D01*
X027153Y009240D01*
X027198Y009349D01*
X027198Y009491D01*
X027144Y009623D01*
X027043Y009724D01*
X026911Y009778D01*
X026769Y009778D01*
X026637Y009724D01*
X026554Y009640D01*
X024949Y009640D01*
X024387Y009078D01*
X024269Y009078D01*
X024137Y009024D01*
X024036Y008923D01*
X023982Y008791D01*
X023982Y008649D01*
X024036Y008517D01*
X024137Y008416D01*
X024269Y008362D01*
X024411Y008362D01*
X024543Y008416D01*
X024644Y008517D01*
X024698Y008649D01*
X024698Y008767D01*
X025131Y009200D01*
X025609Y009200D01*
X025187Y008778D01*
X025069Y008778D01*
X024937Y008724D01*
X024836Y008623D01*
X024782Y008491D01*
X024782Y008349D01*
X024836Y008217D01*
X024839Y008215D01*
X024241Y008215D01*
X023598Y008858D01*
X023598Y008891D01*
X023544Y009023D01*
X023443Y009124D01*
X023377Y009151D01*
X023444Y009217D01*
X023498Y009349D01*
X023498Y009467D01*
X023631Y009600D01*
X023760Y009729D01*
X023760Y010029D01*
X023831Y010100D01*
X026054Y010100D01*
X026137Y010016D01*
X026269Y009962D01*
X026411Y009962D01*
X026543Y010016D01*
X026626Y010100D01*
X030486Y010100D01*
X030482Y010091D01*
X030482Y009949D01*
X030536Y009817D01*
X030637Y009716D01*
X030769Y009662D01*
X030911Y009662D01*
X031043Y009716D01*
X031144Y009817D01*
X031198Y009949D01*
X031198Y010091D01*
X031194Y010100D01*
X034654Y010100D01*
X034737Y010016D01*
X034941Y009925D02*
X031188Y009925D01*
X031133Y009807D02*
X034895Y009807D01*
X034831Y009688D02*
X030974Y009688D01*
X030706Y009688D02*
X027078Y009688D01*
X027166Y009570D02*
X027578Y009570D01*
X027460Y009451D02*
X027198Y009451D01*
X027191Y009333D02*
X027341Y009333D01*
X027340Y009020D02*
X025740Y009020D01*
X025140Y008420D01*
X024816Y008266D02*
X024190Y008266D01*
X024214Y008385D02*
X024071Y008385D01*
X024051Y008503D02*
X023953Y008503D01*
X023993Y008622D02*
X023834Y008622D01*
X023716Y008740D02*
X023982Y008740D01*
X024010Y008859D02*
X023598Y008859D01*
X023563Y008977D02*
X024091Y008977D01*
X024404Y009096D02*
X023471Y009096D01*
X023440Y009214D02*
X024523Y009214D01*
X024641Y009333D02*
X023491Y009333D01*
X023498Y009451D02*
X024760Y009451D01*
X024878Y009570D02*
X023601Y009570D01*
X023719Y009688D02*
X026602Y009688D01*
X026840Y009420D02*
X025040Y009420D01*
X024340Y008720D01*
X024698Y008740D02*
X024977Y008740D01*
X024836Y008622D02*
X024687Y008622D01*
X024629Y008503D02*
X024787Y008503D01*
X024782Y008385D02*
X024466Y008385D01*
X025257Y008081D02*
X025330Y008111D01*
X025330Y006389D01*
X025258Y006461D01*
X024851Y006669D01*
X024400Y006740D01*
X024177Y006705D01*
X024738Y007265D01*
X025163Y007265D01*
X025257Y007359D01*
X025257Y008081D01*
X025257Y008029D02*
X025330Y008029D01*
X025330Y007911D02*
X025257Y007911D01*
X025257Y007792D02*
X025330Y007792D01*
X025330Y007674D02*
X025257Y007674D01*
X025257Y007555D02*
X025330Y007555D01*
X025330Y007437D02*
X025257Y007437D01*
X025216Y007318D02*
X025330Y007318D01*
X025330Y007200D02*
X024672Y007200D01*
X024554Y007081D02*
X025330Y007081D01*
X025330Y006963D02*
X024435Y006963D01*
X024317Y006844D02*
X025330Y006844D01*
X025330Y006726D02*
X024491Y006726D01*
X024400Y006740D02*
X024400Y006740D01*
X024309Y006726D02*
X024198Y006726D01*
X023648Y007081D02*
X021260Y007081D01*
X021260Y006963D02*
X021284Y006963D01*
X021545Y006963D02*
X021665Y006963D01*
X021665Y006844D02*
X021545Y006844D01*
X021545Y006726D02*
X021665Y006726D01*
X021665Y006607D02*
X021545Y006607D01*
X021545Y006489D02*
X021020Y006489D01*
X021138Y006607D02*
X021189Y006607D01*
X021189Y006370D02*
X020201Y006370D01*
X020178Y006220D02*
X019920Y005962D01*
X019920Y005598D01*
X020178Y005340D01*
X020542Y005340D01*
X020800Y005598D01*
X020800Y005962D01*
X020542Y006220D01*
X020178Y006220D01*
X020083Y006252D02*
X021189Y006252D01*
X021091Y006133D02*
X020629Y006133D01*
X020748Y006015D02*
X020972Y006015D01*
X020920Y005896D02*
X020800Y005896D01*
X020800Y005778D02*
X021330Y005778D01*
X021330Y005750D02*
X020920Y005750D01*
X020920Y005598D01*
X021178Y005340D01*
X021330Y005340D01*
X021330Y005750D01*
X021390Y005750D02*
X021390Y005340D01*
X021542Y005340D01*
X021800Y005598D01*
X021800Y005750D01*
X021390Y005750D01*
X021390Y005778D02*
X021920Y005778D01*
X021920Y005896D02*
X021800Y005896D01*
X021748Y006015D02*
X021972Y006015D01*
X021920Y005659D02*
X021800Y005659D01*
X021743Y005541D02*
X021977Y005541D01*
X022040Y005422D02*
X021624Y005422D01*
X021542Y005220D02*
X021390Y005220D01*
X021390Y004810D01*
X021800Y004810D01*
X021800Y004962D01*
X021542Y005220D01*
X021577Y005185D02*
X022040Y005185D01*
X022040Y005304D02*
X019060Y005304D01*
X019060Y005422D02*
X019096Y005422D01*
X019060Y005185D02*
X019143Y005185D01*
X018840Y005120D02*
X018840Y006520D01*
X018540Y006820D01*
X017540Y006820D01*
X016840Y007520D01*
X016840Y009220D01*
X016540Y009520D01*
X015540Y009520D01*
X015240Y009820D01*
X015240Y009920D01*
X015598Y009925D02*
X018924Y009925D01*
X019042Y009807D02*
X015581Y009807D01*
X015576Y010044D02*
X017410Y010044D01*
X017870Y010044D02*
X018805Y010044D01*
X019191Y010281D02*
X021882Y010281D01*
X021885Y010399D02*
X019072Y010399D01*
X018954Y010518D02*
X021934Y010518D01*
X022067Y010636D02*
X017813Y010636D01*
X017467Y010636D02*
X013613Y010636D01*
X013267Y010636D02*
X009413Y010636D01*
X009067Y010636D02*
X005113Y010636D01*
X004117Y010755D02*
X035010Y010755D01*
X035010Y010873D02*
X019789Y010873D01*
X019908Y010992D02*
X035010Y010992D01*
X035010Y011110D02*
X022526Y011110D01*
X022645Y011229D02*
X035010Y011229D01*
X035010Y011347D02*
X022763Y011347D01*
X022882Y011466D02*
X026460Y011466D01*
X026620Y011466D02*
X031360Y011466D01*
X031520Y011466D02*
X035010Y011466D01*
X035010Y011584D02*
X031710Y011584D01*
X031779Y011703D02*
X035010Y011703D01*
X035010Y011821D02*
X034747Y011821D01*
X034853Y011940D02*
X035010Y011940D01*
X035010Y012058D02*
X034898Y012058D01*
X034333Y011821D02*
X031798Y011821D01*
X031170Y011584D02*
X026810Y011584D01*
X026879Y011703D02*
X031101Y011703D01*
X031082Y011821D02*
X026898Y011821D01*
X026270Y011584D02*
X023110Y011584D01*
X023214Y011703D02*
X026201Y011703D01*
X026182Y011821D02*
X023258Y011821D01*
X022340Y011320D02*
X020680Y011320D01*
X020320Y011680D01*
X020320Y013000D01*
X019840Y013480D01*
X019840Y013801D01*
X019795Y013846D01*
X019480Y013779D02*
X019413Y013846D01*
X019480Y013779D02*
X019480Y013360D01*
X019720Y013120D01*
X019720Y012815D01*
X019780Y012875D02*
X019660Y012875D01*
X019660Y013231D01*
X019404Y013231D01*
X019363Y013220D01*
X019343Y013208D01*
X019220Y013331D01*
X019220Y013450D01*
X019620Y013450D01*
X019620Y013389D01*
X019749Y013260D01*
X019780Y013229D01*
X019780Y012875D01*
X019780Y012888D02*
X019660Y012888D01*
X019660Y013006D02*
X019780Y013006D01*
X019780Y013125D02*
X019660Y013125D01*
X019766Y013243D02*
X019308Y013243D01*
X019220Y013362D02*
X019647Y013362D01*
X019240Y013000D02*
X019000Y013240D01*
X019000Y013814D01*
X019031Y013846D01*
X018649Y013846D02*
X018649Y012843D01*
X018640Y012834D01*
X018649Y012843D02*
X017883Y012843D01*
X017680Y012640D01*
X017680Y011440D01*
X017800Y011320D01*
X018092Y010992D02*
X003898Y010992D01*
X003849Y011110D02*
X015554Y011110D01*
X015435Y011229D02*
X003731Y011229D01*
X003349Y011229D02*
X003070Y011229D01*
X003070Y011347D02*
X015317Y011347D01*
X015260Y011466D02*
X003070Y011466D01*
X003070Y011584D02*
X015260Y011584D01*
X015251Y011703D02*
X003070Y011703D01*
X003070Y011821D02*
X004633Y011821D01*
X004527Y011940D02*
X003070Y011940D01*
X003070Y012058D02*
X004482Y012058D01*
X005047Y011821D02*
X008933Y011821D01*
X009347Y011821D02*
X013233Y011821D01*
X013647Y011821D02*
X015193Y011821D01*
X018040Y012280D02*
X018234Y012086D01*
X018640Y012086D01*
X019080Y011640D02*
X019240Y011800D01*
X019240Y013000D01*
X019720Y012145D02*
X019720Y011320D01*
X019780Y011260D01*
X019080Y011560D02*
X019080Y011640D01*
X018211Y010873D02*
X003998Y010873D01*
X003640Y010920D02*
X004640Y009920D01*
X006640Y009920D01*
X007340Y009220D01*
X010840Y009220D01*
X011040Y009020D01*
X013540Y009020D01*
X015840Y006720D01*
X015840Y005300D01*
X016360Y004780D01*
X017360Y004780D02*
X017840Y005260D01*
X017840Y006220D01*
X017540Y006520D01*
X017040Y006520D01*
X013640Y009920D01*
X011240Y009920D01*
X010740Y009720D02*
X011040Y009420D01*
X013740Y009420D01*
X017040Y006120D01*
X017040Y006100D01*
X017360Y005780D01*
X018500Y004780D02*
X018840Y005120D01*
X018500Y004780D02*
X018360Y004780D01*
X019558Y004356D02*
X020162Y004356D01*
X020044Y004474D02*
X019676Y004474D01*
X019795Y004593D02*
X019925Y004593D01*
X019920Y004711D02*
X019800Y004711D01*
X019800Y004830D02*
X019920Y004830D01*
X019920Y004948D02*
X019800Y004948D01*
X019696Y005067D02*
X020024Y005067D01*
X020143Y005185D02*
X019577Y005185D01*
X019624Y005422D02*
X020096Y005422D01*
X019977Y005541D02*
X019743Y005541D01*
X019800Y005659D02*
X019920Y005659D01*
X019920Y005778D02*
X019800Y005778D01*
X019800Y005896D02*
X019920Y005896D01*
X019972Y006015D02*
X019846Y006015D01*
X019964Y006133D02*
X020091Y006133D01*
X019579Y006370D02*
X019060Y006370D01*
X019060Y006252D02*
X019460Y006252D01*
X019091Y006133D02*
X019060Y006133D01*
X019060Y006489D02*
X019697Y006489D01*
X019816Y006607D02*
X019060Y006607D01*
X018946Y006726D02*
X019934Y006726D01*
X020140Y006620D02*
X020840Y006620D01*
X021040Y006820D01*
X021040Y009020D01*
X020840Y009220D01*
X021198Y009214D02*
X021720Y009214D01*
X021720Y009096D02*
X021260Y009096D01*
X021260Y008977D02*
X021720Y008977D01*
X021720Y008859D02*
X021260Y008859D01*
X021260Y008740D02*
X021720Y008740D01*
X021827Y008622D02*
X021260Y008622D01*
X021260Y008503D02*
X021946Y008503D01*
X021982Y008385D02*
X021260Y008385D01*
X021260Y008266D02*
X022016Y008266D01*
X022052Y008148D02*
X021260Y008148D01*
X021260Y008029D02*
X022023Y008029D01*
X022023Y007911D02*
X021260Y007911D01*
X021260Y007792D02*
X022714Y007792D01*
X022714Y007674D02*
X022834Y007674D01*
X022834Y007555D02*
X022714Y007555D01*
X022714Y007437D02*
X022834Y007437D01*
X022834Y007318D02*
X022714Y007318D01*
X022064Y007318D02*
X021260Y007318D01*
X021260Y007200D02*
X023767Y007200D01*
X023796Y007318D02*
X023484Y007318D01*
X023524Y007437D02*
X023756Y007437D01*
X023756Y007555D02*
X023524Y007555D01*
X023524Y007674D02*
X023756Y007674D01*
X024440Y007674D02*
X024440Y007552D01*
X024506Y007486D01*
X023530Y006963D02*
X022610Y006963D01*
X021940Y006963D02*
X021926Y006963D01*
X022023Y007437D02*
X021260Y007437D01*
X021260Y007555D02*
X022023Y007555D01*
X022023Y007674D02*
X021260Y007674D01*
X020820Y007674D02*
X017060Y007674D01*
X017060Y007792D02*
X020820Y007792D01*
X020820Y007911D02*
X017060Y007911D01*
X017060Y008029D02*
X018617Y008029D01*
X018646Y008000D02*
X018994Y008000D01*
X019240Y008246D01*
X019240Y008594D01*
X018994Y008840D01*
X018646Y008840D01*
X018400Y008594D01*
X018400Y008246D01*
X018646Y008000D01*
X018499Y008148D02*
X017060Y008148D01*
X017060Y008266D02*
X018400Y008266D01*
X018400Y008385D02*
X017060Y008385D01*
X017060Y008503D02*
X018400Y008503D01*
X018428Y008622D02*
X017060Y008622D01*
X017060Y008740D02*
X018546Y008740D01*
X019094Y008740D02*
X019546Y008740D01*
X019646Y008840D02*
X019400Y008594D01*
X019400Y008440D01*
X019800Y008440D01*
X019800Y008840D01*
X019646Y008840D01*
X019800Y008740D02*
X019840Y008740D01*
X019840Y008840D02*
X019994Y008840D01*
X020240Y008594D01*
X020240Y008440D01*
X019840Y008440D01*
X019840Y008400D01*
X020240Y008400D01*
X020240Y008246D01*
X019994Y008000D01*
X019840Y008000D01*
X019840Y008400D01*
X019800Y008400D01*
X019800Y008000D01*
X019646Y008000D01*
X019400Y008246D01*
X019400Y008400D01*
X019800Y008400D01*
X019800Y008440D01*
X019840Y008440D01*
X019840Y008840D01*
X020094Y008740D02*
X020820Y008740D01*
X020820Y008622D02*
X020212Y008622D01*
X020240Y008503D02*
X020820Y008503D01*
X020820Y008385D02*
X020240Y008385D01*
X020240Y008266D02*
X020820Y008266D01*
X020820Y008148D02*
X020141Y008148D01*
X020023Y008029D02*
X020820Y008029D01*
X020820Y007555D02*
X017116Y007555D01*
X017235Y007437D02*
X020820Y007437D01*
X020820Y007318D02*
X017353Y007318D01*
X017472Y007200D02*
X020820Y007200D01*
X020820Y007081D02*
X017590Y007081D01*
X017205Y006844D02*
X017027Y006844D01*
X017086Y006963D02*
X016909Y006963D01*
X016968Y007081D02*
X016790Y007081D01*
X016849Y007200D02*
X016672Y007200D01*
X016749Y007300D02*
X017309Y006740D01*
X017131Y006740D01*
X015326Y008545D01*
X015688Y008545D01*
X015740Y008597D01*
X015792Y008545D01*
X016059Y008545D01*
X016036Y008523D01*
X015982Y008391D01*
X015982Y008249D01*
X016036Y008117D01*
X016137Y008016D01*
X016269Y007962D01*
X016411Y007962D01*
X016543Y008016D01*
X016620Y008094D01*
X016620Y007429D01*
X016749Y007300D01*
X016731Y007318D02*
X016553Y007318D01*
X016620Y007437D02*
X016435Y007437D01*
X016316Y007555D02*
X016620Y007555D01*
X016620Y007674D02*
X016198Y007674D01*
X016079Y007792D02*
X016620Y007792D01*
X016620Y007911D02*
X015961Y007911D01*
X015842Y008029D02*
X016125Y008029D01*
X016024Y008148D02*
X015724Y008148D01*
X015605Y008266D02*
X015982Y008266D01*
X015982Y008385D02*
X015487Y008385D01*
X015368Y008503D02*
X016028Y008503D01*
X016340Y008320D02*
X016340Y008794D01*
X016114Y009020D01*
X015366Y009020D02*
X015166Y009294D01*
X014540Y009920D01*
X014540Y010220D01*
X014640Y010320D01*
X013440Y010320D02*
X013340Y010320D01*
X010740Y009720D02*
X007440Y009720D01*
X003640Y010920D02*
X003540Y010920D01*
X003221Y010755D02*
X003070Y010755D01*
X003070Y010873D02*
X003182Y010873D01*
X003182Y010992D02*
X003070Y010992D01*
X003070Y011110D02*
X003231Y011110D01*
X003318Y010636D02*
X003070Y010636D01*
X013436Y008800D02*
X013510Y008621D01*
X013510Y006389D01*
X013582Y006461D01*
X013582Y006461D01*
X013582Y006461D01*
X013989Y006669D01*
X013989Y006669D01*
X014440Y006740D01*
X014440Y006740D01*
X014891Y006669D01*
X014891Y006669D01*
X015298Y006461D01*
X015298Y006461D01*
X015620Y006139D01*
X015620Y006629D01*
X013449Y008800D01*
X013436Y008800D01*
X013461Y008740D02*
X013509Y008740D01*
X013510Y008622D02*
X013627Y008622D01*
X013510Y008503D02*
X013746Y008503D01*
X013864Y008385D02*
X013510Y008385D01*
X013510Y008266D02*
X013983Y008266D01*
X014101Y008148D02*
X013510Y008148D01*
X013510Y008029D02*
X014220Y008029D01*
X014338Y007911D02*
X013510Y007911D01*
X013510Y007792D02*
X014457Y007792D01*
X014575Y007674D02*
X013510Y007674D01*
X013510Y007555D02*
X014694Y007555D01*
X014812Y007437D02*
X013510Y007437D01*
X013510Y007318D02*
X014931Y007318D01*
X015049Y007200D02*
X013510Y007200D01*
X013510Y007081D02*
X015168Y007081D01*
X015286Y006963D02*
X013510Y006963D01*
X013510Y006844D02*
X015405Y006844D01*
X015523Y006726D02*
X014531Y006726D01*
X014349Y006726D02*
X013510Y006726D01*
X013510Y006607D02*
X013868Y006607D01*
X013636Y006489D02*
X013510Y006489D01*
X015012Y006607D02*
X015620Y006607D01*
X015620Y006489D02*
X015244Y006489D01*
X015389Y006370D02*
X015620Y006370D01*
X015620Y006252D02*
X015508Y006252D01*
X018709Y006963D02*
X020820Y006963D01*
X020753Y006844D02*
X018827Y006844D01*
X019360Y005840D02*
X020140Y006620D01*
X019360Y005840D02*
X019360Y005780D01*
X020624Y005422D02*
X021096Y005422D01*
X020977Y005541D02*
X020743Y005541D01*
X020800Y005659D02*
X020920Y005659D01*
X021330Y005659D02*
X021390Y005659D01*
X021390Y005541D02*
X021330Y005541D01*
X021330Y005422D02*
X021390Y005422D01*
X021390Y005185D02*
X021330Y005185D01*
X021330Y005067D02*
X021390Y005067D01*
X021390Y004948D02*
X021330Y004948D01*
X021330Y004830D02*
X021390Y004830D01*
X021696Y005067D02*
X022024Y005067D01*
X021920Y004948D02*
X021800Y004948D01*
X021800Y004830D02*
X021920Y004830D01*
X021920Y004711D02*
X021800Y004711D01*
X021795Y004593D02*
X021925Y004593D01*
X022044Y004474D02*
X021676Y004474D01*
X021558Y004356D02*
X022162Y004356D01*
X021162Y004356D02*
X020558Y004356D01*
X020676Y004474D02*
X021044Y004474D01*
X020925Y004593D02*
X020795Y004593D01*
X020800Y004711D02*
X020920Y004711D01*
X020920Y004830D02*
X020800Y004830D01*
X020800Y004948D02*
X020920Y004948D01*
X021024Y005067D02*
X020696Y005067D01*
X020577Y005185D02*
X021143Y005185D01*
X024851Y006669D02*
X024851Y006669D01*
X024972Y006607D02*
X025330Y006607D01*
X025330Y006489D02*
X025204Y006489D01*
X025258Y006461D02*
X025258Y006461D01*
X028230Y008148D02*
X031806Y008148D01*
X031837Y008116D02*
X031955Y008067D01*
X031765Y007918D01*
X031193Y007303D01*
X030721Y006608D01*
X030721Y006608D01*
X030362Y005848D01*
X030361Y005844D01*
X030210Y006138D01*
X029643Y006920D01*
X028963Y007607D01*
X028185Y008180D01*
X027329Y008628D01*
X026823Y008800D01*
X027431Y008800D01*
X027560Y008929D01*
X027831Y009200D01*
X029249Y009200D01*
X030120Y008329D01*
X030120Y008329D01*
X030249Y008200D01*
X031754Y008200D01*
X031837Y008116D01*
X031907Y008029D02*
X028390Y008029D01*
X028551Y007911D02*
X031759Y007911D01*
X031765Y007918D02*
X031765Y007918D01*
X031648Y007792D02*
X028712Y007792D01*
X028872Y007674D02*
X031538Y007674D01*
X031427Y007555D02*
X029014Y007555D01*
X028963Y007607D02*
X028963Y007607D01*
X029080Y007720D02*
X031840Y007720D01*
X033140Y009020D01*
X032440Y009720D01*
X032340Y009720D01*
X032240Y009620D01*
X033140Y009020D02*
X033840Y009020D01*
X034072Y009096D02*
X029976Y009096D01*
X029857Y009214D02*
X034345Y009214D01*
X034522Y009333D02*
X029739Y009333D01*
X029620Y009451D02*
X034653Y009451D01*
X034750Y009570D02*
X029502Y009570D01*
X029340Y009420D02*
X027740Y009420D01*
X027340Y009020D01*
X027490Y008859D02*
X029590Y008859D01*
X029472Y008977D02*
X027608Y008977D01*
X027727Y009096D02*
X029353Y009096D01*
X029340Y009420D02*
X030340Y008420D01*
X032040Y008420D01*
X032393Y008503D02*
X032542Y008503D01*
X032425Y008438D02*
X032425Y008438D01*
X032344Y008622D02*
X032752Y008622D01*
X032962Y008740D02*
X032203Y008740D01*
X031877Y008740D02*
X030331Y008740D01*
X030213Y008859D02*
X033180Y008859D01*
X033496Y008977D02*
X030094Y008977D01*
X029709Y008740D02*
X026999Y008740D01*
X027341Y008622D02*
X029827Y008622D01*
X029946Y008503D02*
X027568Y008503D01*
X027795Y008385D02*
X030064Y008385D01*
X030183Y008266D02*
X028021Y008266D01*
X028140Y008520D02*
X028280Y008520D01*
X029080Y007720D01*
X029132Y007437D02*
X031317Y007437D01*
X031207Y007318D02*
X029249Y007318D01*
X029367Y007200D02*
X031123Y007200D01*
X031193Y007303D02*
X031193Y007303D01*
X031042Y007081D02*
X029484Y007081D01*
X029602Y006963D02*
X030962Y006963D01*
X030882Y006844D02*
X029699Y006844D01*
X029784Y006726D02*
X030801Y006726D01*
X030721Y006607D02*
X029870Y006607D01*
X029956Y006489D02*
X030665Y006489D01*
X030609Y006370D02*
X030042Y006370D01*
X030128Y006252D02*
X030553Y006252D01*
X030497Y006133D02*
X030213Y006133D01*
X030273Y006015D02*
X030441Y006015D01*
X030385Y005896D02*
X030334Y005896D01*
X030362Y005848D02*
X030362Y005848D01*
X025386Y008977D02*
X024908Y008977D01*
X024790Y008859D02*
X025267Y008859D01*
X025504Y009096D02*
X025027Y009096D01*
X023760Y009807D02*
X030547Y009807D01*
X030492Y009925D02*
X023760Y009925D01*
X023775Y010044D02*
X026110Y010044D01*
X026570Y010044D02*
X030482Y010044D01*
X031040Y010320D02*
X034940Y010320D01*
X034767Y010636D02*
X026513Y010636D01*
X026167Y010636D02*
X022413Y010636D01*
X022240Y010320D02*
X022240Y010020D01*
X022040Y009820D01*
X021720Y009570D02*
X020932Y009570D01*
X020748Y009570D02*
X016802Y009570D01*
X016683Y009688D02*
X019161Y009688D01*
X019428Y010044D02*
X021952Y010044D01*
X021918Y010162D02*
X019309Y010162D01*
X020565Y009451D02*
X016920Y009451D01*
X017039Y009333D02*
X020499Y009333D01*
X020482Y009214D02*
X017060Y009214D01*
X017060Y009096D02*
X020504Y009096D01*
X020577Y008977D02*
X017060Y008977D01*
X017060Y008859D02*
X020820Y008859D01*
X021181Y009333D02*
X021720Y009333D01*
X021720Y009451D02*
X021115Y009451D01*
X019840Y008622D02*
X019800Y008622D01*
X019800Y008503D02*
X019840Y008503D01*
X019840Y008385D02*
X019800Y008385D01*
X019800Y008266D02*
X019840Y008266D01*
X019840Y008148D02*
X019800Y008148D01*
X019800Y008029D02*
X019840Y008029D01*
X019617Y008029D02*
X019023Y008029D01*
X019141Y008148D02*
X019499Y008148D01*
X019400Y008266D02*
X019240Y008266D01*
X019240Y008385D02*
X019400Y008385D01*
X019400Y008503D02*
X019240Y008503D01*
X019212Y008622D02*
X019428Y008622D01*
X016620Y008029D02*
X016555Y008029D01*
X023140Y009420D02*
X023540Y009820D01*
X023540Y010120D01*
X023740Y010320D01*
X024740Y010920D02*
X024740Y011620D01*
M02*
