G75*
%MOIN*%
%OFA0B0*%
%FSLAX24Y24*%
%IPPOS*%
%LPD*%
%AMOC8*
5,1,8,0,0,1.08239X$1,22.5*
%
%ADD10R,0.0789X0.0710*%
%ADD11R,0.0592X0.0671*%
%ADD12R,0.0592X0.0710*%
%ADD13C,0.0740*%
%ADD14C,0.0640*%
%ADD15R,0.0671X0.0671*%
%ADD16R,0.0710X0.0592*%
%ADD17C,0.1182*%
%ADD18C,0.0674*%
%ADD19R,0.0690X0.0592*%
%ADD20R,0.0198X0.0671*%
%ADD21R,0.2620X0.1080*%
%ADD22R,0.0710X0.0789*%
%ADD23R,0.0867X0.0710*%
%ADD24R,0.0631X0.0828*%
%ADD25R,0.0710X0.1261*%
%ADD26R,0.1261X0.0710*%
%ADD27R,0.0867X0.1064*%
%ADD28R,0.0867X0.1379*%
%ADD29R,0.0277X0.1300*%
%ADD30C,0.0434*%
%ADD31C,0.0640*%
%ADD32OC8,0.0640*%
%ADD33R,0.0671X0.0592*%
%ADD34R,0.0194X0.0356*%
%ADD35R,0.0356X0.0194*%
%ADD36R,0.0190X0.0660*%
%ADD37OC8,0.0680*%
%ADD38R,0.0316X0.0946*%
%ADD39C,0.0600*%
%ADD40C,0.0476*%
D10*
X033020Y007799D03*
X033920Y007799D03*
X033920Y008901D03*
X033020Y008901D03*
D11*
X020755Y011510D03*
X020085Y011510D03*
X020085Y012310D03*
X020755Y012310D03*
X019635Y014290D03*
X018965Y014290D03*
X016835Y019190D03*
X016165Y019190D03*
X022065Y020750D03*
X022735Y020750D03*
X025565Y019750D03*
X026235Y019750D03*
X026195Y018810D03*
X025525Y018810D03*
D12*
X025726Y020590D03*
X026474Y020590D03*
X018134Y010170D03*
X017386Y010170D03*
X017386Y009350D03*
X018134Y009350D03*
X007474Y022250D03*
X006726Y022250D03*
X006526Y024150D03*
X007274Y024150D03*
D13*
X003580Y008420D02*
X003580Y007760D01*
X005080Y007760D02*
X005080Y008420D01*
X006580Y008420D02*
X006580Y007760D01*
D14*
X004540Y009690D02*
X004540Y010250D01*
X003540Y010250D02*
X003540Y009690D01*
X028560Y022390D02*
X028560Y022950D01*
X029560Y022950D02*
X029560Y022390D01*
D15*
X011700Y022979D03*
X011700Y021601D03*
X005729Y024170D03*
X004351Y024170D03*
D16*
X012540Y022944D03*
X012540Y022196D03*
X027620Y022636D03*
X027620Y023384D03*
D17*
X024980Y022350D03*
X015020Y022350D03*
X004635Y018773D03*
X004635Y011687D03*
X035165Y011787D03*
X035165Y018873D03*
D18*
X027094Y017299D03*
X027094Y013361D03*
X012706Y013261D03*
X012706Y017199D03*
D19*
X010665Y021364D03*
X010665Y023136D03*
X007535Y023136D03*
X006625Y023176D03*
X006625Y021404D03*
X007535Y021364D03*
X003495Y021404D03*
X003495Y023176D03*
D20*
X028933Y011630D03*
X029188Y011630D03*
X029444Y011630D03*
X029700Y011630D03*
X029956Y011630D03*
X030212Y011630D03*
X030468Y011630D03*
X030724Y011630D03*
X030980Y011630D03*
X031236Y011630D03*
X031492Y011630D03*
X031747Y011630D03*
X031747Y009070D03*
X031492Y009070D03*
X031236Y009070D03*
X030980Y009070D03*
X030724Y009070D03*
X030468Y009070D03*
X030212Y009070D03*
X029956Y009070D03*
X029700Y009070D03*
X029444Y009070D03*
X029188Y009070D03*
X028933Y009070D03*
D21*
X030340Y010350D03*
D22*
X031049Y008070D03*
X030171Y008050D03*
X029069Y008050D03*
X032151Y008070D03*
D23*
X034980Y007799D03*
X034980Y008901D03*
D24*
X024872Y018484D03*
X023928Y018484D03*
X023928Y020216D03*
X024872Y020216D03*
D25*
X027340Y009616D03*
X027340Y007884D03*
D26*
X009606Y019810D03*
X007874Y019810D03*
D27*
X008108Y008329D03*
X011612Y008329D03*
D28*
X011612Y010652D03*
X008108Y010652D03*
D29*
X009230Y010691D03*
X009545Y010691D03*
X009860Y010691D03*
X010175Y010691D03*
X010490Y010691D03*
D30*
X010726Y009510D03*
X008994Y009510D03*
D31*
X016960Y022850D03*
D32*
X017960Y022850D03*
X017960Y021850D03*
X016960Y021850D03*
X018960Y021850D03*
X019960Y021850D03*
X019960Y022850D03*
X018960Y022850D03*
X020960Y022850D03*
X021960Y022850D03*
X021960Y021850D03*
X020960Y021850D03*
X022960Y021850D03*
X022960Y022850D03*
D33*
X016180Y018565D03*
X016180Y017895D03*
X024760Y017065D03*
X024760Y016395D03*
X022420Y010165D03*
X022420Y009495D03*
X021620Y009495D03*
X021620Y010165D03*
X034980Y022375D03*
X034980Y023045D03*
D34*
X020352Y010568D03*
X020155Y010568D03*
X019958Y010568D03*
X019762Y010568D03*
X019565Y010568D03*
X019368Y010568D03*
X019368Y009092D03*
X019565Y009092D03*
X019762Y009092D03*
X019958Y009092D03*
X020155Y009092D03*
X020352Y009092D03*
D35*
X020598Y009338D03*
X020598Y009535D03*
X020598Y009732D03*
X020598Y009928D03*
X020598Y010125D03*
X020598Y010322D03*
X019122Y010322D03*
X019122Y010125D03*
X019122Y009928D03*
X019122Y009732D03*
X019122Y009535D03*
X019122Y009338D03*
D36*
G36*
X019802Y015412D02*
X019936Y015278D01*
X019470Y014812D01*
X019336Y014946D01*
X019802Y015412D01*
G37*
G36*
X019660Y015554D02*
X019794Y015420D01*
X019328Y014954D01*
X019194Y015088D01*
X019660Y015554D01*
G37*
G36*
X019519Y015695D02*
X019653Y015561D01*
X019187Y015095D01*
X019053Y015229D01*
X019519Y015695D01*
G37*
G36*
X019384Y015830D02*
X019518Y015696D01*
X019052Y015230D01*
X018918Y015364D01*
X019384Y015830D01*
G37*
G36*
X019243Y015971D02*
X019377Y015837D01*
X018911Y015371D01*
X018777Y015505D01*
X019243Y015971D01*
G37*
G36*
X019101Y016113D02*
X019235Y015979D01*
X018769Y015513D01*
X018635Y015647D01*
X019101Y016113D01*
G37*
G36*
X018967Y016247D02*
X019101Y016113D01*
X018635Y015647D01*
X018501Y015781D01*
X018967Y016247D01*
G37*
G36*
X018826Y016388D02*
X018960Y016254D01*
X018494Y015788D01*
X018360Y015922D01*
X018826Y016388D01*
G37*
G36*
X018684Y016530D02*
X018818Y016396D01*
X018352Y015930D01*
X018218Y016064D01*
X018684Y016530D01*
G37*
G36*
X018543Y016671D02*
X018677Y016537D01*
X018211Y016071D01*
X018077Y016205D01*
X018543Y016671D01*
G37*
G36*
X018409Y016805D02*
X018543Y016671D01*
X018077Y016205D01*
X017943Y016339D01*
X018409Y016805D01*
G37*
G36*
X018267Y016947D02*
X018401Y016813D01*
X017935Y016347D01*
X017801Y016481D01*
X018267Y016947D01*
G37*
G36*
X018126Y017088D02*
X018260Y016954D01*
X017794Y016488D01*
X017660Y016622D01*
X018126Y017088D01*
G37*
G36*
X017991Y017223D02*
X018125Y017089D01*
X017659Y016623D01*
X017525Y016757D01*
X017991Y017223D01*
G37*
G36*
X017850Y017364D02*
X017984Y017230D01*
X017518Y016764D01*
X017384Y016898D01*
X017850Y017364D01*
G37*
G36*
X017708Y017506D02*
X017842Y017372D01*
X017376Y016906D01*
X017242Y017040D01*
X017708Y017506D01*
G37*
G36*
X017842Y018128D02*
X017708Y017994D01*
X017242Y018460D01*
X017376Y018594D01*
X017842Y018128D01*
G37*
G36*
X017984Y018270D02*
X017850Y018136D01*
X017384Y018602D01*
X017518Y018736D01*
X017984Y018270D01*
G37*
G36*
X018125Y018411D02*
X017991Y018277D01*
X017525Y018743D01*
X017659Y018877D01*
X018125Y018411D01*
G37*
G36*
X018260Y018546D02*
X018126Y018412D01*
X017660Y018878D01*
X017794Y019012D01*
X018260Y018546D01*
G37*
G36*
X018401Y018687D02*
X018267Y018553D01*
X017801Y019019D01*
X017935Y019153D01*
X018401Y018687D01*
G37*
G36*
X018543Y018829D02*
X018409Y018695D01*
X017943Y019161D01*
X018077Y019295D01*
X018543Y018829D01*
G37*
G36*
X018677Y018963D02*
X018543Y018829D01*
X018077Y019295D01*
X018211Y019429D01*
X018677Y018963D01*
G37*
G36*
X018818Y019104D02*
X018684Y018970D01*
X018218Y019436D01*
X018352Y019570D01*
X018818Y019104D01*
G37*
G36*
X018960Y019246D02*
X018826Y019112D01*
X018360Y019578D01*
X018494Y019712D01*
X018960Y019246D01*
G37*
G36*
X019101Y019387D02*
X018967Y019253D01*
X018501Y019719D01*
X018635Y019853D01*
X019101Y019387D01*
G37*
G36*
X019235Y019521D02*
X019101Y019387D01*
X018635Y019853D01*
X018769Y019987D01*
X019235Y019521D01*
G37*
G36*
X019377Y019663D02*
X019243Y019529D01*
X018777Y019995D01*
X018911Y020129D01*
X019377Y019663D01*
G37*
G36*
X019518Y019804D02*
X019384Y019670D01*
X018918Y020136D01*
X019052Y020270D01*
X019518Y019804D01*
G37*
G36*
X019653Y019939D02*
X019519Y019805D01*
X019053Y020271D01*
X019187Y020405D01*
X019653Y019939D01*
G37*
G36*
X019794Y020080D02*
X019660Y019946D01*
X019194Y020412D01*
X019328Y020546D01*
X019794Y020080D01*
G37*
G36*
X019936Y020222D02*
X019802Y020088D01*
X019336Y020554D01*
X019470Y020688D01*
X019936Y020222D01*
G37*
G36*
X020890Y020688D02*
X021024Y020554D01*
X020558Y020088D01*
X020424Y020222D01*
X020890Y020688D01*
G37*
G36*
X021032Y020546D02*
X021166Y020412D01*
X020700Y019946D01*
X020566Y020080D01*
X021032Y020546D01*
G37*
G36*
X021173Y020405D02*
X021307Y020271D01*
X020841Y019805D01*
X020707Y019939D01*
X021173Y020405D01*
G37*
G36*
X021308Y020270D02*
X021442Y020136D01*
X020976Y019670D01*
X020842Y019804D01*
X021308Y020270D01*
G37*
G36*
X021449Y020129D02*
X021583Y019995D01*
X021117Y019529D01*
X020983Y019663D01*
X021449Y020129D01*
G37*
G36*
X021591Y019987D02*
X021725Y019853D01*
X021259Y019387D01*
X021125Y019521D01*
X021591Y019987D01*
G37*
G36*
X021725Y019853D02*
X021859Y019719D01*
X021393Y019253D01*
X021259Y019387D01*
X021725Y019853D01*
G37*
G36*
X021866Y019712D02*
X022000Y019578D01*
X021534Y019112D01*
X021400Y019246D01*
X021866Y019712D01*
G37*
G36*
X022008Y019570D02*
X022142Y019436D01*
X021676Y018970D01*
X021542Y019104D01*
X022008Y019570D01*
G37*
G36*
X022149Y019429D02*
X022283Y019295D01*
X021817Y018829D01*
X021683Y018963D01*
X022149Y019429D01*
G37*
G36*
X022283Y019295D02*
X022417Y019161D01*
X021951Y018695D01*
X021817Y018829D01*
X022283Y019295D01*
G37*
G36*
X022425Y019153D02*
X022559Y019019D01*
X022093Y018553D01*
X021959Y018687D01*
X022425Y019153D01*
G37*
G36*
X022566Y019012D02*
X022700Y018878D01*
X022234Y018412D01*
X022100Y018546D01*
X022566Y019012D01*
G37*
G36*
X022701Y018877D02*
X022835Y018743D01*
X022369Y018277D01*
X022235Y018411D01*
X022701Y018877D01*
G37*
G36*
X022842Y018736D02*
X022976Y018602D01*
X022510Y018136D01*
X022376Y018270D01*
X022842Y018736D01*
G37*
G36*
X022984Y018594D02*
X023118Y018460D01*
X022652Y017994D01*
X022518Y018128D01*
X022984Y018594D01*
G37*
G36*
X023118Y017040D02*
X022984Y016906D01*
X022518Y017372D01*
X022652Y017506D01*
X023118Y017040D01*
G37*
G36*
X022976Y016898D02*
X022842Y016764D01*
X022376Y017230D01*
X022510Y017364D01*
X022976Y016898D01*
G37*
G36*
X022835Y016757D02*
X022701Y016623D01*
X022235Y017089D01*
X022369Y017223D01*
X022835Y016757D01*
G37*
G36*
X022700Y016622D02*
X022566Y016488D01*
X022100Y016954D01*
X022234Y017088D01*
X022700Y016622D01*
G37*
G36*
X022559Y016481D02*
X022425Y016347D01*
X021959Y016813D01*
X022093Y016947D01*
X022559Y016481D01*
G37*
G36*
X022417Y016339D02*
X022283Y016205D01*
X021817Y016671D01*
X021951Y016805D01*
X022417Y016339D01*
G37*
G36*
X022283Y016205D02*
X022149Y016071D01*
X021683Y016537D01*
X021817Y016671D01*
X022283Y016205D01*
G37*
G36*
X022142Y016064D02*
X022008Y015930D01*
X021542Y016396D01*
X021676Y016530D01*
X022142Y016064D01*
G37*
G36*
X022000Y015922D02*
X021866Y015788D01*
X021400Y016254D01*
X021534Y016388D01*
X022000Y015922D01*
G37*
G36*
X021859Y015781D02*
X021725Y015647D01*
X021259Y016113D01*
X021393Y016247D01*
X021859Y015781D01*
G37*
G36*
X021725Y015647D02*
X021591Y015513D01*
X021125Y015979D01*
X021259Y016113D01*
X021725Y015647D01*
G37*
G36*
X021583Y015505D02*
X021449Y015371D01*
X020983Y015837D01*
X021117Y015971D01*
X021583Y015505D01*
G37*
G36*
X021442Y015364D02*
X021308Y015230D01*
X020842Y015696D01*
X020976Y015830D01*
X021442Y015364D01*
G37*
G36*
X021307Y015229D02*
X021173Y015095D01*
X020707Y015561D01*
X020841Y015695D01*
X021307Y015229D01*
G37*
G36*
X021166Y015088D02*
X021032Y014954D01*
X020566Y015420D01*
X020700Y015554D01*
X021166Y015088D01*
G37*
G36*
X021024Y014946D02*
X020890Y014812D01*
X020424Y015278D01*
X020558Y015412D01*
X021024Y014946D01*
G37*
D37*
X014080Y019410D03*
X014080Y020410D03*
X013080Y020410D03*
X012080Y020410D03*
X012080Y019410D03*
X013080Y019410D03*
X011080Y019410D03*
X011080Y020410D03*
X028600Y020410D03*
X029600Y020410D03*
X029600Y019410D03*
X028600Y019410D03*
X030600Y019410D03*
X031600Y019410D03*
X031600Y020410D03*
X030600Y020410D03*
D38*
X032630Y021606D03*
X033130Y021606D03*
X033630Y021606D03*
X034130Y021606D03*
X034130Y023654D03*
X033630Y023654D03*
X033130Y023654D03*
X032630Y023654D03*
D39*
X026360Y017850D02*
X025840Y017850D01*
X025840Y016850D02*
X026360Y016850D01*
X026360Y015850D02*
X025840Y015850D01*
X025840Y014850D02*
X026360Y014850D01*
X026360Y013850D02*
X025840Y013850D01*
X025840Y012850D02*
X026360Y012850D01*
X013960Y012770D02*
X013440Y012770D01*
X013440Y013770D02*
X013960Y013770D01*
X013960Y014770D02*
X013440Y014770D01*
X013440Y015770D02*
X013960Y015770D01*
X013960Y016770D02*
X013440Y016770D01*
X013440Y017770D02*
X013960Y017770D01*
D40*
X015540Y018950D03*
X015940Y020070D03*
X015140Y020150D03*
X016340Y020790D03*
X017540Y020230D03*
X017680Y019310D03*
X018960Y018750D03*
X019760Y017870D03*
X020960Y018110D03*
X021380Y018710D03*
X020500Y019030D03*
X020180Y020230D03*
X019300Y020950D03*
X016820Y018230D03*
X016500Y017350D03*
X016100Y016630D03*
X016420Y016230D03*
X016900Y015750D03*
X017220Y015350D03*
X017700Y015910D03*
X017540Y014630D03*
X018180Y014470D03*
X018100Y013350D03*
X016640Y013870D03*
X016320Y012270D03*
X018260Y010790D03*
X019300Y011190D03*
X020740Y010870D03*
X019700Y009910D03*
X018660Y009110D03*
X016720Y009070D03*
X013680Y009070D03*
X011940Y011750D03*
X010020Y012870D03*
X009540Y012230D03*
X008240Y012670D03*
X007620Y011830D03*
X006420Y012150D03*
X006240Y012830D03*
X003840Y013310D03*
X003760Y017470D03*
X006320Y017950D03*
X006820Y019030D03*
X007700Y019030D03*
X006820Y020150D03*
X008660Y021030D03*
X009220Y021990D03*
X010740Y023670D03*
X007860Y023910D03*
X005860Y022310D03*
X004160Y022350D03*
X008960Y017790D03*
X009300Y017030D03*
X011360Y017470D03*
X011760Y015870D03*
X011760Y014990D03*
X009220Y013590D03*
X014720Y015070D03*
X019440Y016270D03*
X020880Y016350D03*
X020980Y017350D03*
X023300Y017030D03*
X023760Y017550D03*
X023540Y016310D03*
X023460Y015750D03*
X023620Y015270D03*
X024240Y014270D03*
X023140Y013670D03*
X022420Y012870D03*
X021860Y012710D03*
X021380Y012390D03*
X021140Y012870D03*
X020640Y014030D03*
X020260Y014710D03*
X021860Y014870D03*
X024720Y012670D03*
X022980Y010630D03*
X023540Y009830D03*
X024260Y009750D03*
X025620Y010230D03*
X027180Y011030D03*
X027620Y010710D03*
X028580Y011950D03*
X028180Y012270D03*
X029380Y010350D03*
X029860Y010350D03*
X030340Y010350D03*
X030820Y010350D03*
X031300Y010350D03*
X032420Y010010D03*
X033220Y010010D03*
X034020Y010010D03*
X034020Y010810D03*
X033220Y010830D03*
X032420Y010830D03*
X032180Y011470D03*
X033120Y012990D03*
X031360Y013550D03*
X028720Y014430D03*
X028100Y016550D03*
X029440Y017550D03*
X027840Y017790D03*
X027460Y019030D03*
X027380Y019750D03*
X026980Y020550D03*
X026580Y021350D03*
X028260Y021190D03*
X026900Y023510D03*
X023060Y020150D03*
X032020Y021590D03*
X033220Y020550D03*
X034180Y022630D03*
X035600Y020430D03*
X032160Y017870D03*
X035360Y017390D03*
X035440Y013550D03*
X034820Y009790D03*
X035960Y007950D03*
X028500Y009310D03*
X028100Y008830D03*
X028180Y008150D03*
X026580Y008150D03*
X024640Y006430D03*
X015120Y006270D03*
X010100Y008870D03*
M02*
