G75*
%MOIN*%
%OFA0B0*%
%FSLAX24Y24*%
%IPPOS*%
%LPD*%
%AMOC8*
5,1,8,0,0,1.08239X$1,22.5*
%
%ADD10C,0.0080*%
%ADD11C,0.0040*%
%ADD12R,0.0660X0.0380*%
D10*
X007453Y010630D02*
X007856Y010236D01*
X007856Y011024D01*
X007453Y010630D01*
X008394Y013324D02*
X008394Y017336D01*
D11*
X007370Y009300D02*
X007063Y009300D01*
X007217Y009300D02*
X007217Y009760D01*
X007370Y009607D01*
X007524Y009684D02*
X007524Y009377D01*
X007601Y009300D01*
X007831Y009300D01*
X007831Y009760D01*
X007601Y009760D01*
X007524Y009684D01*
X006890Y009880D02*
X008670Y009880D01*
X008670Y011380D02*
X006890Y011380D01*
X010082Y012487D02*
X010159Y012410D01*
X010312Y012410D01*
X010389Y012487D01*
X010082Y012794D01*
X010082Y012487D01*
X010082Y012794D02*
X010159Y012870D01*
X010312Y012870D01*
X010389Y012794D01*
X010389Y012487D01*
X010543Y012410D02*
X010850Y012410D01*
X010543Y012717D01*
X010543Y012794D01*
X010619Y012870D01*
X010773Y012870D01*
X010850Y012794D01*
X011003Y012794D02*
X011080Y012870D01*
X011233Y012870D01*
X011310Y012794D01*
X011310Y012487D01*
X011233Y012410D01*
X011080Y012410D01*
X011003Y012487D01*
X010917Y012214D02*
X010763Y012290D01*
X010917Y012214D02*
X011070Y012060D01*
X010840Y012060D01*
X010763Y011983D01*
X010763Y011907D01*
X010840Y011830D01*
X010994Y011830D01*
X011070Y011907D01*
X011070Y012060D01*
X011224Y011830D02*
X011531Y011830D01*
X011377Y011830D02*
X011377Y012290D01*
X011531Y012137D01*
X011684Y012214D02*
X011761Y012290D01*
X011914Y012290D01*
X011991Y012214D01*
X011991Y011907D01*
X011914Y011830D01*
X011761Y011830D01*
X011684Y011907D01*
X013780Y012229D02*
X014240Y012229D01*
X014240Y012459D01*
X014164Y012536D01*
X014010Y012536D01*
X013933Y012459D01*
X013933Y012229D01*
X013933Y012383D02*
X013780Y012536D01*
X013857Y012690D02*
X013780Y012766D01*
X013780Y012920D01*
X013857Y012997D01*
X014164Y012997D01*
X014240Y012920D01*
X014240Y012766D01*
X014164Y012690D01*
X014087Y012690D01*
X014010Y012766D01*
X014010Y012997D01*
X014130Y011290D02*
X014053Y011214D01*
X014053Y011137D01*
X014130Y011060D01*
X014284Y011060D01*
X014360Y011137D01*
X014360Y011214D01*
X014284Y011290D01*
X014130Y011290D01*
X014130Y011060D02*
X014053Y010983D01*
X014053Y010907D01*
X014130Y010830D01*
X014284Y010830D01*
X014360Y010907D01*
X014360Y010983D01*
X014284Y011060D01*
X014514Y011060D02*
X014514Y011214D01*
X014591Y011290D01*
X014821Y011290D01*
X014821Y010830D01*
X014821Y010983D02*
X014591Y010983D01*
X014514Y011060D01*
X014667Y010983D02*
X014514Y010830D01*
X014571Y010530D02*
X014494Y010454D01*
X014494Y010300D01*
X014571Y010223D01*
X014801Y010223D01*
X014801Y010070D02*
X014801Y010530D01*
X014571Y010530D01*
X014340Y010530D02*
X014033Y010530D01*
X014033Y010454D01*
X014340Y010147D01*
X014340Y010070D01*
X014494Y010070D02*
X014647Y010223D01*
X011884Y014400D02*
X011577Y014400D01*
X011500Y014477D01*
X011500Y014630D01*
X011577Y014707D01*
X011500Y014860D02*
X011500Y015167D01*
X011500Y015014D02*
X011960Y015014D01*
X011807Y014860D01*
X011884Y014707D02*
X011960Y014630D01*
X011960Y014477D01*
X011884Y014400D01*
X011260Y014477D02*
X011260Y014630D01*
X011184Y014707D01*
X011107Y014860D02*
X011260Y015014D01*
X010800Y015014D01*
X010800Y015167D02*
X010800Y014860D01*
X010877Y014707D02*
X010800Y014630D01*
X010800Y014477D01*
X010877Y014400D01*
X011184Y014400D01*
X011260Y014477D01*
X010660Y015096D02*
X010584Y015019D01*
X010277Y015019D01*
X010200Y015096D01*
X010200Y015249D01*
X010277Y015326D01*
X010200Y015479D02*
X010200Y015786D01*
X010200Y015633D02*
X010660Y015633D01*
X010507Y015479D01*
X010584Y015326D02*
X010660Y015249D01*
X010660Y015096D01*
X010800Y015321D02*
X010800Y015628D01*
X010800Y015474D02*
X011260Y015474D01*
X011107Y015321D01*
X011500Y015321D02*
X011500Y015628D01*
X011500Y015321D02*
X011807Y015628D01*
X011884Y015628D01*
X011960Y015551D01*
X011960Y015398D01*
X011884Y015321D01*
X010660Y016016D02*
X010660Y016170D01*
X010584Y016247D01*
X010277Y015940D01*
X010200Y016016D01*
X010200Y016170D01*
X010277Y016247D01*
X010584Y016247D01*
X010660Y016016D02*
X010584Y015940D01*
X010277Y015940D01*
X009960Y016016D02*
X009960Y016170D01*
X009884Y016247D01*
X009577Y016247D01*
X009500Y016170D01*
X009500Y016016D01*
X009577Y015940D01*
X009577Y015786D02*
X009500Y015709D01*
X009500Y015556D01*
X009577Y015479D01*
X009884Y015479D01*
X009960Y015556D01*
X009960Y015709D01*
X009884Y015786D01*
X009884Y015940D02*
X009807Y015940D01*
X009730Y016016D01*
X009730Y016247D01*
X009960Y016016D02*
X009884Y015940D01*
X009440Y017550D02*
X009287Y017550D01*
X009363Y017550D02*
X009363Y018010D01*
X009287Y018010D02*
X009440Y018010D01*
X009133Y017934D02*
X009133Y017627D01*
X009056Y017550D01*
X008903Y017550D01*
X008826Y017627D01*
X008673Y017550D02*
X008366Y017857D01*
X008366Y017934D01*
X008442Y018010D01*
X008596Y018010D01*
X008673Y017934D01*
X008826Y017934D02*
X008903Y018010D01*
X009056Y018010D01*
X009133Y017934D01*
X008673Y017550D02*
X008366Y017550D01*
D12*
X008690Y016330D03*
X008690Y015330D03*
X008690Y014330D03*
M02*
