G75*
%MOIN*%
%OFA0B0*%
%FSLAX24Y24*%
%IPPOS*%
%LPD*%
%AMOC8*
5,1,8,0,0,1.08239X$1,22.5*
%
%ADD10C,0.0600*%
%ADD11R,0.0512X0.0630*%
%ADD12R,0.0315X0.0087*%
%ADD13R,0.0118X0.0472*%
%ADD14C,0.0560*%
%ADD15R,0.0512X0.0591*%
%ADD16R,0.0591X0.0591*%
%ADD17R,0.0630X0.0512*%
%ADD18C,0.0100*%
%ADD19C,0.0396*%
%ADD20C,0.0120*%
D10*
X001870Y002830D02*
X002470Y002830D01*
X002470Y003830D02*
X001870Y003830D01*
X001870Y004830D02*
X002470Y004830D01*
D11*
X003356Y002010D03*
X004104Y002010D03*
D12*
X007092Y003215D03*
X007092Y003373D03*
X007092Y003530D03*
X007092Y003687D03*
X007092Y003845D03*
X007808Y003845D03*
X007808Y003687D03*
X007808Y003530D03*
X007808Y003373D03*
X007808Y003215D03*
D13*
X006418Y002688D03*
X006162Y002688D03*
X005906Y002688D03*
X005650Y002688D03*
X005394Y002688D03*
X005138Y002688D03*
X004882Y002688D03*
X004882Y004972D03*
X005138Y004972D03*
X005394Y004972D03*
X005650Y004972D03*
X005906Y004972D03*
X006162Y004972D03*
X006418Y004972D03*
D14*
X006150Y002110D02*
X006150Y001550D01*
X005150Y001550D02*
X005150Y002110D01*
D15*
X007255Y002550D03*
X007925Y002550D03*
X007925Y004590D03*
X007255Y004590D03*
D16*
X004110Y004919D03*
X004110Y003541D03*
D17*
X003270Y003644D03*
X003270Y002896D03*
D18*
X001770Y002010D02*
X001470Y002310D01*
X001470Y003750D01*
X001590Y003870D01*
X002130Y003870D01*
X002170Y003830D01*
X002556Y004260D02*
X002714Y004195D01*
X002835Y004074D01*
X002867Y003996D01*
X002901Y004030D01*
X003639Y004030D01*
X003715Y003954D01*
X003715Y003920D01*
X003761Y003966D01*
X004459Y003966D01*
X004535Y003890D01*
X004535Y003192D01*
X004459Y003116D01*
X003761Y003116D01*
X003735Y003142D01*
X003735Y002946D01*
X003320Y002946D01*
X003320Y002846D01*
X003735Y002846D01*
X003735Y002620D01*
X003725Y002582D01*
X003705Y002548D01*
X003677Y002520D01*
X003643Y002500D01*
X003605Y002490D01*
X003320Y002490D01*
X003320Y002846D01*
X003220Y002846D01*
X002805Y002846D01*
X002805Y002780D01*
X002220Y002780D01*
X002220Y002880D01*
X002918Y002880D01*
X002909Y002935D01*
X002905Y002946D01*
X003220Y002946D01*
X003220Y002846D01*
X003220Y002490D01*
X002935Y002490D01*
X002897Y002500D01*
X002863Y002520D01*
X002835Y002548D01*
X002829Y002558D01*
X002813Y002537D01*
X002763Y002487D01*
X002706Y002445D01*
X002643Y002413D01*
X002575Y002391D01*
X002505Y002380D01*
X002220Y002380D01*
X002220Y002780D01*
X002120Y002780D01*
X002120Y002380D01*
X001835Y002380D01*
X001800Y002385D01*
X001800Y002235D01*
X001845Y002190D01*
X002970Y002190D01*
X002970Y002379D01*
X003046Y002455D01*
X003666Y002455D01*
X003730Y002391D01*
X003794Y002455D01*
X004414Y002455D01*
X004490Y002379D01*
X004490Y002010D01*
X004740Y002010D01*
X004740Y002192D01*
X004794Y002322D01*
X004769Y002322D01*
X004693Y002398D01*
X004693Y002978D01*
X004702Y002987D01*
X004702Y003414D01*
X004672Y003444D01*
X004622Y003565D01*
X004622Y003695D01*
X004672Y003816D01*
X004764Y003908D01*
X004885Y003958D01*
X005015Y003958D01*
X005136Y003908D01*
X005177Y003867D01*
X006409Y003867D01*
X006352Y003924D01*
X006302Y004045D01*
X006302Y004175D01*
X006352Y004296D01*
X006444Y004388D01*
X006565Y004438D01*
X006695Y004438D01*
X006816Y004388D01*
X006849Y004355D01*
X006849Y004540D01*
X007205Y004540D01*
X007205Y004640D01*
X006849Y004640D01*
X006849Y004756D01*
X006815Y004742D01*
X006685Y004742D01*
X006607Y004774D01*
X006607Y004682D01*
X006531Y004606D01*
X006342Y004606D01*
X006342Y004527D01*
X006090Y004275D01*
X006090Y004275D01*
X005985Y004170D01*
X004604Y004170D01*
X004281Y004494D01*
X003761Y004494D01*
X003685Y004570D01*
X003685Y004650D01*
X002861Y004650D01*
X002835Y004586D01*
X002714Y004465D01*
X002556Y004400D01*
X001800Y004400D01*
X001800Y004260D01*
X002556Y004260D01*
X002603Y004241D02*
X004534Y004241D01*
X004435Y004339D02*
X001800Y004339D01*
X002170Y004830D02*
X004021Y004830D01*
X004110Y004919D01*
X004679Y004350D01*
X005910Y004350D01*
X006162Y004602D01*
X006162Y004972D01*
X006607Y004733D02*
X006849Y004733D01*
X006849Y004536D02*
X006342Y004536D01*
X006252Y004438D02*
X006563Y004438D01*
X006697Y004438D02*
X006849Y004438D01*
X006559Y004635D02*
X007205Y004635D01*
X007205Y004640D02*
X007205Y005035D01*
X007078Y005035D01*
X007078Y005036D01*
X008110Y005036D01*
X008110Y005015D01*
X007615Y005015D01*
X007604Y005005D01*
X007603Y005005D01*
X007569Y005025D01*
X007531Y005035D01*
X007305Y005035D01*
X007305Y004640D01*
X007205Y004640D01*
X007255Y004590D02*
X007350Y004685D01*
X007350Y005190D01*
X007305Y005029D02*
X007205Y005029D01*
X007205Y004930D02*
X007305Y004930D01*
X007305Y004832D02*
X007205Y004832D01*
X007205Y004733D02*
X007305Y004733D01*
X007255Y004590D02*
X007350Y004495D01*
X007350Y004110D01*
X007615Y003845D01*
X007808Y003845D01*
X007808Y003867D02*
X007808Y004038D01*
X007631Y004038D01*
X007593Y004028D01*
X007559Y004008D01*
X007531Y003980D01*
X007511Y003946D01*
X007501Y003908D01*
X007501Y003845D01*
X007581Y003845D01*
X007501Y003845D01*
X007501Y003782D01*
X007511Y003744D01*
X007521Y003727D01*
X007521Y003594D01*
X007510Y003605D01*
X007405Y003710D01*
X007379Y003710D01*
X007379Y003942D01*
X007303Y004018D01*
X007173Y004018D01*
X007166Y004025D01*
X006970Y004025D01*
X006956Y004039D01*
X006958Y004045D01*
X006958Y004151D01*
X006980Y004145D01*
X007205Y004145D01*
X007205Y004540D01*
X007305Y004540D01*
X007305Y004145D01*
X007531Y004145D01*
X007569Y004155D01*
X007603Y004175D01*
X007604Y004175D01*
X007615Y004165D01*
X008010Y004165D01*
X008010Y004032D01*
X007985Y004038D01*
X007808Y004038D01*
X007808Y003867D01*
X007808Y003867D01*
X007808Y003945D02*
X007808Y003945D01*
X007581Y003845D02*
X007581Y003845D01*
X007501Y003847D02*
X007379Y003847D01*
X007376Y003945D02*
X007511Y003945D01*
X007510Y003748D02*
X007379Y003748D01*
X007465Y003650D02*
X007521Y003650D01*
X007330Y003530D02*
X007092Y003530D01*
X006770Y003530D01*
X006510Y003270D01*
X006763Y003059D02*
X006835Y003059D01*
X006842Y003052D02*
X006876Y003032D01*
X006915Y003022D01*
X007092Y003022D01*
X007269Y003022D01*
X007307Y003032D01*
X007341Y003052D01*
X007369Y003080D01*
X007389Y003114D01*
X007399Y003152D01*
X007399Y003206D01*
X007413Y003193D01*
X007521Y003193D01*
X007521Y003118D01*
X007597Y003042D01*
X007727Y003042D01*
X007745Y003024D01*
X007745Y002975D01*
X007615Y002975D01*
X007604Y002965D01*
X007603Y002965D01*
X007569Y002985D01*
X007531Y002995D01*
X007305Y002995D01*
X007305Y002600D01*
X007205Y002600D01*
X007205Y002500D01*
X006849Y002500D01*
X006849Y002235D01*
X006860Y002197D01*
X006879Y002163D01*
X006907Y002135D01*
X006942Y002115D01*
X006980Y002105D01*
X007205Y002105D01*
X007205Y002500D01*
X007305Y002500D01*
X007305Y002105D01*
X007531Y002105D01*
X007569Y002115D01*
X007603Y002135D01*
X007604Y002135D01*
X007615Y002125D01*
X008110Y002125D01*
X008110Y001440D01*
X006548Y001440D01*
X006560Y001468D01*
X006560Y002192D01*
X006512Y002306D01*
X006535Y002312D01*
X006569Y002332D01*
X006597Y002360D01*
X006617Y002394D01*
X006627Y002432D01*
X006627Y002688D01*
X006418Y002688D01*
X006418Y002688D01*
X006627Y002688D01*
X006627Y002944D01*
X006622Y002961D01*
X006696Y002992D01*
X006788Y003084D01*
X006798Y003108D01*
X006814Y003080D01*
X006842Y003052D01*
X006907Y002965D02*
X006879Y002937D01*
X006860Y002903D01*
X006849Y002865D01*
X006849Y002600D01*
X007205Y002600D01*
X007205Y002995D01*
X006980Y002995D01*
X006942Y002985D01*
X006907Y002965D01*
X006902Y002960D02*
X006622Y002960D01*
X006627Y002862D02*
X006849Y002862D01*
X006849Y002763D02*
X006627Y002763D01*
X006627Y002665D02*
X006849Y002665D01*
X007066Y002688D02*
X007092Y002714D01*
X007255Y002550D01*
X007205Y002566D02*
X006627Y002566D01*
X006627Y002468D02*
X006849Y002468D01*
X006849Y002369D02*
X006602Y002369D01*
X006527Y002271D02*
X006849Y002271D01*
X006874Y002172D02*
X006560Y002172D01*
X006560Y002074D02*
X008110Y002074D01*
X008110Y001975D02*
X006560Y001975D01*
X006560Y001877D02*
X008110Y001877D01*
X008110Y001778D02*
X006560Y001778D01*
X006560Y001680D02*
X008110Y001680D01*
X008110Y001581D02*
X006560Y001581D01*
X006560Y001483D02*
X008110Y001483D01*
X007230Y001830D02*
X007092Y001968D01*
X007092Y003215D01*
X007092Y002714D01*
X007066Y002688D02*
X006418Y002688D01*
X007092Y003022D02*
X007092Y003199D01*
X007092Y003022D01*
X007092Y003059D02*
X007092Y003059D01*
X007092Y003157D02*
X007092Y003157D01*
X007092Y003199D02*
X007092Y003199D01*
X007348Y003059D02*
X007580Y003059D01*
X007521Y003157D02*
X007399Y003157D01*
X007487Y003373D02*
X007330Y003530D01*
X007487Y003373D02*
X007808Y003373D01*
X007808Y003215D02*
X007925Y003099D01*
X007925Y002550D01*
X007305Y002468D02*
X007205Y002468D01*
X007205Y002369D02*
X007305Y002369D01*
X007305Y002271D02*
X007205Y002271D01*
X007205Y002172D02*
X007305Y002172D01*
X007305Y002665D02*
X007205Y002665D01*
X007205Y002763D02*
X007305Y002763D01*
X007305Y002862D02*
X007205Y002862D01*
X007205Y002960D02*
X007305Y002960D01*
X007092Y003687D02*
X005007Y003687D01*
X004950Y003630D01*
X004882Y003562D01*
X004882Y002688D01*
X004693Y002665D02*
X003735Y002665D01*
X003735Y002763D02*
X004693Y002763D01*
X004693Y002862D02*
X003320Y002862D01*
X003270Y002896D02*
X002236Y002896D01*
X002170Y002830D01*
X002220Y002862D02*
X003220Y002862D01*
X003220Y002763D02*
X003320Y002763D01*
X003320Y002665D02*
X003220Y002665D01*
X003220Y002566D02*
X003320Y002566D01*
X003715Y002566D02*
X004693Y002566D01*
X004693Y002468D02*
X002737Y002468D01*
X002970Y002369D02*
X001800Y002369D01*
X001800Y002271D02*
X002970Y002271D01*
X003356Y002010D02*
X001770Y002010D01*
X002120Y002468D02*
X002220Y002468D01*
X002220Y002566D02*
X002120Y002566D01*
X002120Y002665D02*
X002220Y002665D01*
X002220Y002763D02*
X002120Y002763D01*
X002120Y002880D02*
X002120Y003280D01*
X001835Y003280D01*
X001800Y003275D01*
X001800Y003400D01*
X002556Y003400D01*
X002714Y003465D01*
X002825Y003577D01*
X002825Y003334D01*
X002878Y003281D01*
X002863Y003272D01*
X002835Y003244D01*
X002815Y003210D01*
X002805Y003172D01*
X002805Y003131D01*
X002763Y003173D01*
X002706Y003215D01*
X002643Y003247D01*
X002575Y003269D01*
X002505Y003280D01*
X002220Y003280D01*
X002220Y002880D01*
X002120Y002880D01*
X002120Y002960D02*
X002220Y002960D01*
X002220Y003059D02*
X002120Y003059D01*
X002120Y003157D02*
X002220Y003157D01*
X002220Y003256D02*
X002120Y003256D01*
X001800Y003354D02*
X002825Y003354D01*
X002825Y003453D02*
X002682Y003453D01*
X002799Y003551D02*
X002825Y003551D01*
X003270Y003644D02*
X003373Y003541D01*
X004110Y003541D01*
X004535Y003551D02*
X004628Y003551D01*
X004622Y003650D02*
X004535Y003650D01*
X004535Y003748D02*
X004644Y003748D01*
X004702Y003847D02*
X004535Y003847D01*
X004480Y003945D02*
X004853Y003945D01*
X005047Y003945D02*
X006343Y003945D01*
X006302Y004044D02*
X002847Y004044D01*
X002766Y004142D02*
X006302Y004142D01*
X006329Y004241D02*
X006055Y004241D01*
X006154Y004339D02*
X006395Y004339D01*
X006630Y004110D02*
X006895Y003845D01*
X007092Y003845D01*
X006958Y004044D02*
X008010Y004044D01*
X008010Y004142D02*
X006958Y004142D01*
X007205Y004241D02*
X007305Y004241D01*
X007305Y004339D02*
X007205Y004339D01*
X007205Y004438D02*
X007305Y004438D01*
X007305Y004536D02*
X007205Y004536D01*
X007556Y005029D02*
X008110Y005029D01*
X007925Y004590D02*
X008190Y004325D01*
X008190Y003750D01*
X008127Y003687D01*
X007808Y003687D01*
X006030Y003270D02*
X005190Y003270D01*
X005138Y003218D01*
X005138Y002688D01*
X005394Y002688D02*
X005394Y002074D01*
X005150Y001830D01*
X004284Y001830D01*
X004104Y002010D01*
X004490Y002074D02*
X004740Y002074D01*
X004740Y002172D02*
X004490Y002172D01*
X004490Y002271D02*
X004773Y002271D01*
X004722Y002369D02*
X004490Y002369D01*
X004693Y002960D02*
X003735Y002960D01*
X003735Y003059D02*
X004702Y003059D01*
X004702Y003157D02*
X004500Y003157D01*
X004535Y003256D02*
X004702Y003256D01*
X004702Y003354D02*
X004535Y003354D01*
X004535Y003453D02*
X004668Y003453D01*
X003740Y003945D02*
X003715Y003945D01*
X004337Y004438D02*
X002646Y004438D01*
X002784Y004536D02*
X003719Y004536D01*
X003685Y004635D02*
X002854Y004635D01*
X002847Y003256D02*
X002617Y003256D01*
X002779Y003157D02*
X002805Y003157D01*
X005650Y002688D02*
X005650Y002330D01*
X006150Y001830D01*
D19*
X007230Y001830D03*
X006510Y003270D03*
X006030Y003270D03*
X004950Y003630D03*
X006630Y004110D03*
X006750Y005070D03*
X007350Y005190D03*
X003150Y004350D03*
D20*
X006418Y004972D02*
X006516Y005070D01*
X006750Y005070D01*
M02*
