G75*
%MOIN*%
%OFA0B0*%
%FSLAX24Y24*%
%IPPOS*%
%LPD*%
%AMOC8*
5,1,8,0,0,1.08239X$1,22.5*
%
%ADD10C,0.0680*%
%ADD11R,0.0592X0.0710*%
%ADD12R,0.0395X0.0167*%
%ADD13R,0.0198X0.0552*%
%ADD14C,0.0640*%
%ADD15R,0.0592X0.0671*%
%ADD16R,0.0671X0.0671*%
%ADD17R,0.0710X0.0592*%
%ADD18C,0.0476*%
D10*
X001870Y002830D02*
X002470Y002830D01*
X002470Y003830D02*
X001870Y003830D01*
X001870Y004830D02*
X002470Y004830D01*
D11*
X003356Y002010D03*
X004104Y002010D03*
D12*
X007092Y003215D03*
X007092Y003373D03*
X007092Y003530D03*
X007092Y003687D03*
X007092Y003845D03*
X007808Y003845D03*
X007808Y003687D03*
X007808Y003530D03*
X007808Y003373D03*
X007808Y003215D03*
D13*
X006418Y002688D03*
X006162Y002688D03*
X005906Y002688D03*
X005650Y002688D03*
X005394Y002688D03*
X005138Y002688D03*
X004882Y002688D03*
X004882Y004972D03*
X005138Y004972D03*
X005394Y004972D03*
X005650Y004972D03*
X005906Y004972D03*
X006162Y004972D03*
X006418Y004972D03*
D14*
X006150Y002110D02*
X006150Y001550D01*
X005150Y001550D02*
X005150Y002110D01*
D15*
X007255Y002550D03*
X007925Y002550D03*
X007925Y004590D03*
X007255Y004590D03*
D16*
X004110Y004919D03*
X004110Y003541D03*
D17*
X003270Y003644D03*
X003270Y002896D03*
D18*
X004950Y003630D03*
X006030Y003270D03*
X006510Y003270D03*
X006630Y004110D03*
X006750Y005070D03*
X007350Y005190D03*
X003150Y004350D03*
X007230Y001830D03*
M02*
