G75*
%MOIN*%
%OFA0B0*%
%FSLAX24Y24*%
%IPPOS*%
%LPD*%
%AMOC8*
5,1,8,0,0,1.08239X$1,22.5*
%
%ADD10C,0.0740*%
%ADD11C,0.0640*%
%ADD12C,0.0680*%
%ADD13C,0.1182*%
%ADD14C,0.0674*%
%ADD15C,0.0434*%
%ADD16R,0.0300X0.0600*%
%ADD17R,0.0710X0.0592*%
%ADD18R,0.0671X0.0592*%
%ADD19R,0.0592X0.0671*%
%ADD20R,0.0867X0.0710*%
%ADD21R,0.0671X0.0671*%
%ADD22R,0.0592X0.0710*%
%ADD23C,0.0640*%
%ADD24OC8,0.0640*%
%ADD25R,0.1025X0.1025*%
%ADD26C,0.0600*%
%ADD27C,0.0476*%
D10*
X006220Y009230D02*
X006220Y009890D01*
X007720Y009890D02*
X007720Y009230D01*
X009220Y009230D02*
X009220Y009890D01*
D11*
X007180Y011160D02*
X007180Y011720D01*
X006180Y011720D02*
X006180Y011160D01*
X037840Y024900D02*
X037840Y025460D01*
X038840Y025460D02*
X038840Y024900D01*
D12*
X035400Y022060D02*
X035400Y021460D01*
X034400Y021460D02*
X034400Y022060D01*
X033400Y022060D02*
X033400Y021460D01*
X032400Y021460D02*
X032400Y022060D01*
X029860Y022460D02*
X029260Y022460D01*
X029260Y021460D02*
X029860Y021460D01*
X029860Y020460D02*
X029260Y020460D01*
X029260Y023460D02*
X029860Y023460D01*
X017160Y021180D02*
X016560Y021180D01*
X016560Y020180D02*
X017160Y020180D01*
X017160Y019180D02*
X016560Y019180D01*
X016560Y018180D02*
X017160Y018180D01*
X015200Y020700D02*
X015200Y021300D01*
X014200Y021300D02*
X014200Y020700D01*
X013200Y020700D02*
X013200Y021300D01*
D13*
X007275Y020243D03*
X007275Y013157D03*
X017660Y027900D03*
X027620Y027900D03*
X037805Y020343D03*
X037805Y013257D03*
D14*
X029734Y014831D03*
X029734Y018769D03*
X015346Y018669D03*
X015346Y014731D03*
D15*
X013366Y010980D03*
X011634Y010980D03*
D16*
X013930Y011320D03*
X014300Y011320D03*
X014670Y011320D03*
X014670Y010240D03*
X013930Y010240D03*
D17*
X013140Y010234D03*
X013140Y009486D03*
X018900Y025466D03*
X018900Y026214D03*
D18*
X015540Y010915D03*
X015540Y010245D03*
D19*
X014915Y012020D03*
X014245Y012020D03*
X012115Y015460D03*
X011445Y015460D03*
X011445Y016180D03*
X012115Y016180D03*
D20*
X010820Y012571D03*
X010820Y011469D03*
D21*
X010801Y013790D03*
X012179Y013790D03*
D22*
X013606Y012820D03*
X014354Y012820D03*
X014346Y019900D03*
X015094Y019900D03*
D23*
X019600Y028400D03*
D24*
X020600Y028400D03*
X021600Y028400D03*
X021600Y027400D03*
X020600Y027400D03*
X019600Y027400D03*
X022600Y027400D03*
X023600Y027400D03*
X024600Y027400D03*
X024600Y028400D03*
X023600Y028400D03*
X022600Y028400D03*
X025600Y028400D03*
X025600Y027400D03*
D25*
X009686Y014580D03*
X007954Y014580D03*
D26*
X016580Y022000D02*
X016580Y022520D01*
X017580Y022520D02*
X017580Y022000D01*
X018580Y022000D02*
X018580Y022520D01*
X019580Y022520D02*
X019580Y022000D01*
X020580Y022000D02*
X020580Y022520D01*
D27*
X021460Y022340D03*
X022900Y022420D03*
X022580Y021380D03*
X023860Y021780D03*
X023540Y020340D03*
X025780Y021700D03*
X027060Y022580D03*
X026980Y023620D03*
X027780Y024180D03*
X029060Y024900D03*
X030660Y023400D03*
X031100Y023680D03*
X031620Y024033D03*
X031240Y025280D03*
X032820Y025360D03*
X033700Y025700D03*
X033460Y026140D03*
X033760Y026560D03*
X034360Y025920D03*
X034420Y025140D03*
X033940Y024500D03*
X033560Y023840D03*
X033380Y023060D03*
X035860Y023700D03*
X036500Y024420D03*
X035940Y025380D03*
X036980Y026100D03*
X035620Y027700D03*
X035060Y027780D03*
X034710Y028310D03*
X035680Y028700D03*
X033860Y028960D03*
X031840Y029340D03*
X032180Y027280D03*
X029960Y027480D03*
X029960Y026960D03*
X029060Y028600D03*
X029560Y029160D03*
X025640Y024720D03*
X024740Y024180D03*
X024100Y024340D03*
X020420Y025780D03*
X019640Y026000D03*
X018520Y024800D03*
X018020Y024740D03*
X018180Y023940D03*
X019640Y023680D03*
X016680Y023100D03*
X015220Y023780D03*
X015020Y023060D03*
X014960Y024860D03*
X015060Y026260D03*
X016500Y026180D03*
X016340Y025460D03*
X013320Y027960D03*
X012560Y028560D03*
X011220Y028440D03*
X008660Y027960D03*
X007620Y027960D03*
X007700Y029400D03*
X009360Y026460D03*
X009720Y025560D03*
X011020Y025560D03*
X008420Y025560D03*
X006980Y024260D03*
X008420Y020760D03*
X009720Y020660D03*
X011120Y020760D03*
X010580Y018580D03*
X010580Y016660D03*
X010580Y015060D03*
X011300Y014660D03*
X012180Y014580D03*
X013580Y015060D03*
X014420Y014020D03*
X014980Y012820D03*
X017400Y011600D03*
X015000Y009460D03*
X012700Y010900D03*
X008820Y011700D03*
X008340Y010740D03*
X008820Y012900D03*
X006220Y015060D03*
X007220Y015460D03*
X007220Y016660D03*
X006220Y016660D03*
X006220Y018460D03*
X007220Y018460D03*
X012660Y016180D03*
X013580Y016660D03*
X016100Y015760D03*
X016120Y017760D03*
X018200Y018640D03*
X019940Y018900D03*
X021540Y018180D03*
X023300Y018100D03*
X021540Y016580D03*
X021060Y015380D03*
X020100Y015760D03*
X022740Y015460D03*
X023860Y016020D03*
X024500Y015620D03*
X021780Y013360D03*
X017620Y009080D03*
X027140Y009080D03*
X027800Y011520D03*
X030260Y012180D03*
X030140Y013060D03*
X030820Y013740D03*
X031220Y013420D03*
X032020Y011820D03*
X032500Y011820D03*
X032980Y011820D03*
X033460Y011820D03*
X033940Y011820D03*
X035060Y011480D03*
X035860Y011480D03*
X036660Y011480D03*
X037460Y011260D03*
X036660Y012280D03*
X035860Y012300D03*
X035060Y012300D03*
X034820Y012940D03*
X034000Y015020D03*
X033360Y016540D03*
X032660Y016520D03*
X030800Y016940D03*
X029000Y017920D03*
X030800Y018660D03*
X032140Y020640D03*
X031600Y020880D03*
X030500Y021220D03*
X027480Y021280D03*
X026280Y020000D03*
X027300Y019940D03*
X025960Y018160D03*
X029000Y015600D03*
X033360Y018660D03*
X033540Y020580D03*
X034900Y020580D03*
X036420Y021700D03*
X036900Y021780D03*
X037300Y021380D03*
X038020Y021700D03*
X036180Y022260D03*
X037760Y018500D03*
X038840Y018500D03*
X038860Y016700D03*
X037760Y016700D03*
X037760Y015100D03*
X038760Y015100D03*
X035280Y016780D03*
X031140Y010780D03*
X030740Y010300D03*
X038600Y009420D03*
X020500Y020180D03*
X017800Y020720D03*
X038160Y029420D03*
X038860Y027160D03*
M02*
