%
M48
M72
T01C0.0236
T02C0.0320
T03C0.0354
T04C0.0360
T05C0.0394
T06C0.0400
T07C0.0440
T08C0.1102
%
T01
X8340Y10740
X8820Y11700
X8820Y12900
X10580Y15060
X11300Y14660
X12180Y14580
X13580Y15060
X14420Y14020
X14980Y12820
X17400Y11600
X15000Y9460
X12700Y10900
X17620Y9080
X21780Y13360
X21060Y15380
X20100Y15760
X21540Y16580
X22740Y15460
X23860Y16020
X24500Y15620
X23300Y18100
X21540Y18180
X19940Y18900
X20500Y20180
X22580Y21380
X22900Y22420
X23860Y21780
X23540Y20340
X25780Y21700
X27060Y22580
X26980Y23620
X27780Y24180
X29060Y24900
X30660Y23400
X31100Y23680
X31620Y24033
X31240Y25280
X32820Y25360
X33700Y25700
X33460Y26140
X33760Y26560
X34360Y25920
X34420Y25140
X33940Y24500
X33560Y23840
X33380Y23060
X35860Y23700
X36500Y24420
X35940Y25380
X36980Y26100
X35620Y27700
X35060Y27780
X34710Y28310
X35680Y28700
X33860Y28960
X31840Y29340
X32180Y27280
X29960Y27480
X29960Y26960
X29060Y28600
X29560Y29160
X25640Y24720
X24740Y24180
X24100Y24340
X21460Y22340
X19640Y23680
X18180Y23940
X18020Y24740
X18520Y24800
X19640Y26000
X20420Y25780
X16500Y26180
X16340Y25460
X15060Y26260
X14960Y24860
X15220Y23780
X15020Y23060
X16680Y23100
X17800Y20720
X18200Y18640
X16120Y17760
X16100Y15760
X13580Y16660
X12660Y16180
X10580Y16660
X10580Y18580
X9720Y20660
X8420Y20760
X11120Y20760
X7220Y18460
X6220Y18460
X6220Y16660
X7220Y16660
X7220Y15460
X6220Y15060
X6980Y24260
X8420Y25560
X9360Y26460
X9720Y25560
X11020Y25560
X13320Y27960
X12560Y28560
X11220Y28440
X8660Y27960
X7620Y27960
X7700Y29400
X25960Y18160
X27300Y19940
X26280Y20000
X27480Y21280
X30500Y21220
X31600Y20880
X32140Y20640
X33540Y20580
X34900Y20580
X36420Y21700
X36900Y21780
X37300Y21380
X38020Y21700
X36180Y22260
X33360Y18660
X35280Y16780
X33360Y16540
X32660Y16520
X34000Y15020
X34820Y12940
X35060Y12300
X35860Y12300
X36660Y12280
X36660Y11480
X37460Y11260
X35860Y11480
X35060Y11480
X33940Y11820
X33460Y11820
X32980Y11820
X32500Y11820
X32020Y11820
X31140Y10780
X30740Y10300
X30260Y12180
X30140Y13060
X30820Y13740
X31220Y13420
X29000Y15600
X30800Y16940
X29000Y17920
X30800Y18660
X37760Y18500
X38840Y18500
X38860Y16700
X37760Y16700
X37760Y15100
X38760Y15100
X38600Y9420
X27800Y11520
X27140Y9080
X38860Y27160
X38160Y29420
T02
X20580Y22260
X19580Y22260
X18580Y22260
X17580Y22260
X16580Y22260
T03
X13366Y10980
X11634Y10980
T04
X7180Y11440
X6180Y11440
X19600Y27400
X20600Y27400
X21600Y27400
X21600Y28400
X20600Y28400
X19600Y28400
X22600Y28400
X23600Y28400
X24600Y28400
X24600Y27400
X23600Y27400
X22600Y27400
X25600Y27400
X25600Y28400
X37840Y25180
X38840Y25180
T05
X29734Y18769
X29734Y14831
X15346Y14731
X15346Y18669
T06
X16860Y18180
X16860Y19180
X16860Y20180
X16860Y21180
X15200Y21000
X14200Y21000
X13200Y21000
X29560Y21460
X29560Y22460
X29560Y23460
X32400Y21760
X33400Y21760
X34400Y21760
X35400Y21760
X29560Y20460
T07
X6220Y9560
X7720Y9560
X9220Y9560
T08
X7275Y13157
X7275Y20243
X17660Y27900
X27620Y27900
X37805Y20343
X37805Y13257
M30
