G75*
%MOIN*%
%OFA0B0*%
%FSLAX24Y24*%
%IPPOS*%
%LPD*%
%AMOC8*
5,1,8,0,0,1.08239X$1,22.5*
%
%ADD10R,0.0789X0.0710*%
%ADD11R,0.0592X0.0671*%
%ADD12R,0.0671X0.0592*%
%ADD13R,0.0592X0.0710*%
%ADD14R,0.4178X0.4332*%
%ADD15R,0.0930X0.0500*%
%ADD16C,0.0740*%
%ADD17C,0.0640*%
%ADD18R,0.0671X0.0671*%
%ADD19R,0.0710X0.0592*%
%ADD20C,0.0680*%
%ADD21C,0.1182*%
%ADD22C,0.0674*%
%ADD23R,0.0690X0.0592*%
%ADD24R,0.0198X0.0671*%
%ADD25R,0.2620X0.1080*%
%ADD26R,0.0710X0.0789*%
%ADD27R,0.0867X0.0710*%
%ADD28R,0.0631X0.0828*%
%ADD29R,0.0710X0.1261*%
%ADD30R,0.1261X0.0710*%
%ADD31R,0.0190X0.0490*%
%ADD32R,0.0867X0.1064*%
%ADD33R,0.0867X0.1379*%
%ADD34R,0.0277X0.1300*%
%ADD35C,0.0434*%
%ADD36R,0.0474X0.0631*%
%ADD37C,0.0640*%
%ADD38OC8,0.0640*%
%ADD39R,0.0356X0.0194*%
%ADD40R,0.0194X0.0356*%
%ADD41R,0.0474X0.0237*%
%ADD42R,0.0237X0.0474*%
%ADD43C,0.0600*%
%ADD44C,0.0476*%
D10*
X035660Y009269D03*
X036560Y009269D03*
X036560Y010371D03*
X035660Y010371D03*
D11*
X023635Y017300D03*
X022965Y017300D03*
X022835Y018660D03*
X022165Y018660D03*
X022165Y019460D03*
X022835Y019460D03*
X021235Y014660D03*
X020565Y014660D03*
X022245Y014180D03*
X022915Y014180D03*
X037685Y024160D03*
X038355Y024160D03*
X038165Y027800D03*
X038835Y027800D03*
X038875Y028580D03*
X038205Y028580D03*
X035095Y028960D03*
X034425Y028960D03*
X033095Y028780D03*
X032425Y028780D03*
D12*
X030980Y026755D03*
X030980Y026085D03*
X030200Y025475D03*
X030200Y024805D03*
X024980Y020995D03*
X024980Y020325D03*
X024180Y020325D03*
X024180Y020995D03*
X014560Y022125D03*
X014560Y022795D03*
X014560Y023505D03*
X014560Y024175D03*
X013820Y024175D03*
X013820Y023505D03*
X013820Y022795D03*
X013820Y022125D03*
D13*
X016786Y023980D03*
X017534Y023980D03*
X017234Y024820D03*
X016486Y024820D03*
X016986Y025660D03*
X017734Y025660D03*
X015834Y027560D03*
X015086Y027560D03*
X010194Y027960D03*
X009446Y027960D03*
X022226Y023780D03*
X022974Y023780D03*
X023506Y022880D03*
X024254Y022880D03*
X023886Y019460D03*
X024634Y019460D03*
X024634Y018660D03*
X023886Y018660D03*
X022154Y017300D03*
X021406Y017300D03*
X030526Y028780D03*
X031274Y028780D03*
D14*
X009700Y023080D03*
D15*
X012980Y023080D03*
X012980Y022080D03*
X012980Y024080D03*
D16*
X006220Y009890D02*
X006220Y009230D01*
X007720Y009230D02*
X007720Y009890D01*
X009220Y009890D02*
X009220Y009230D01*
D17*
X007180Y011160D02*
X007180Y011720D01*
X006180Y011720D02*
X006180Y011160D01*
X037840Y024900D02*
X037840Y025460D01*
X038840Y025460D02*
X038840Y024900D01*
D18*
X014260Y027031D03*
X014260Y028409D03*
X007529Y026080D03*
X006151Y026080D03*
D19*
X006180Y025194D03*
X006180Y024446D03*
X038180Y026186D03*
X038180Y026934D03*
D20*
X035400Y022060D02*
X035400Y021460D01*
X034400Y021460D02*
X034400Y022060D01*
X033400Y022060D02*
X033400Y021460D01*
X032400Y021460D02*
X032400Y022060D01*
X029860Y022460D02*
X029260Y022460D01*
X029260Y021460D02*
X029860Y021460D01*
X029860Y020460D02*
X029260Y020460D01*
X029260Y023460D02*
X029860Y023460D01*
X017160Y021180D02*
X016560Y021180D01*
X016560Y020180D02*
X017160Y020180D01*
X017160Y019180D02*
X016560Y019180D01*
X016560Y018180D02*
X017160Y018180D01*
X015200Y020700D02*
X015200Y021300D01*
X014200Y021300D02*
X014200Y020700D01*
X013200Y020700D02*
X013200Y021300D01*
D21*
X007275Y020243D03*
X007275Y013157D03*
X017660Y027900D03*
X027620Y027900D03*
X037805Y020343D03*
X037805Y013257D03*
D22*
X029734Y014831D03*
X029734Y018769D03*
X015346Y018669D03*
X015346Y014731D03*
D23*
X013465Y027114D03*
X013465Y028886D03*
X010335Y028886D03*
X009265Y028846D03*
X009265Y027074D03*
X010335Y027114D03*
X006135Y027074D03*
X006135Y028846D03*
D24*
X031573Y013100D03*
X031828Y013100D03*
X032084Y013100D03*
X032340Y013100D03*
X032596Y013100D03*
X032852Y013100D03*
X033108Y013100D03*
X033364Y013100D03*
X033620Y013100D03*
X033876Y013100D03*
X034132Y013100D03*
X034387Y013100D03*
X034387Y010540D03*
X034132Y010540D03*
X033876Y010540D03*
X033620Y010540D03*
X033364Y010540D03*
X033108Y010540D03*
X032852Y010540D03*
X032596Y010540D03*
X032340Y010540D03*
X032084Y010540D03*
X031828Y010540D03*
X031573Y010540D03*
D25*
X032980Y011820D03*
D26*
X032811Y009520D03*
X033689Y009540D03*
X034791Y009540D03*
X031709Y009520D03*
D27*
X037620Y009269D03*
X037620Y010371D03*
D28*
X037352Y027074D03*
X036408Y027074D03*
X036408Y028806D03*
X037352Y028806D03*
D29*
X029980Y011086D03*
X029980Y009354D03*
D30*
X014406Y025600D03*
X012674Y025600D03*
D31*
G36*
X031897Y025670D02*
X031763Y025536D01*
X031417Y025882D01*
X031551Y026016D01*
X031897Y025670D01*
G37*
G36*
X032031Y025804D02*
X031897Y025670D01*
X031551Y026016D01*
X031685Y026150D01*
X032031Y025804D01*
G37*
G36*
X032172Y025946D02*
X032038Y025812D01*
X031692Y026158D01*
X031826Y026292D01*
X032172Y025946D01*
G37*
G36*
X032314Y026087D02*
X032180Y025953D01*
X031834Y026299D01*
X031968Y026433D01*
X032314Y026087D01*
G37*
G36*
X032448Y026222D02*
X032314Y026088D01*
X031968Y026434D01*
X032102Y026568D01*
X032448Y026222D01*
G37*
G36*
X032590Y026363D02*
X032456Y026229D01*
X032110Y026575D01*
X032244Y026709D01*
X032590Y026363D01*
G37*
G36*
X032731Y026504D02*
X032597Y026370D01*
X032251Y026716D01*
X032385Y026850D01*
X032731Y026504D01*
G37*
G36*
X032872Y026646D02*
X032738Y026512D01*
X032392Y026858D01*
X032526Y026992D01*
X032872Y026646D01*
G37*
G36*
X033007Y026780D02*
X032873Y026646D01*
X032527Y026992D01*
X032661Y027126D01*
X033007Y026780D01*
G37*
G36*
X033148Y026922D02*
X033014Y026788D01*
X032668Y027134D01*
X032802Y027268D01*
X033148Y026922D01*
G37*
G36*
X033290Y027063D02*
X033156Y026929D01*
X032810Y027275D01*
X032944Y027409D01*
X033290Y027063D01*
G37*
G36*
X033424Y027197D02*
X033290Y027063D01*
X032944Y027409D01*
X033078Y027543D01*
X033424Y027197D01*
G37*
G36*
X034082Y027543D02*
X034216Y027409D01*
X033870Y027063D01*
X033736Y027197D01*
X034082Y027543D01*
G37*
G36*
X034216Y027409D02*
X034350Y027275D01*
X034004Y026929D01*
X033870Y027063D01*
X034216Y027409D01*
G37*
G36*
X034358Y027268D02*
X034492Y027134D01*
X034146Y026788D01*
X034012Y026922D01*
X034358Y027268D01*
G37*
G36*
X034499Y027126D02*
X034633Y026992D01*
X034287Y026646D01*
X034153Y026780D01*
X034499Y027126D01*
G37*
G36*
X034634Y026992D02*
X034768Y026858D01*
X034422Y026512D01*
X034288Y026646D01*
X034634Y026992D01*
G37*
G36*
X034775Y026850D02*
X034909Y026716D01*
X034563Y026370D01*
X034429Y026504D01*
X034775Y026850D01*
G37*
G36*
X034916Y026709D02*
X035050Y026575D01*
X034704Y026229D01*
X034570Y026363D01*
X034916Y026709D01*
G37*
G36*
X035058Y026568D02*
X035192Y026434D01*
X034846Y026088D01*
X034712Y026222D01*
X035058Y026568D01*
G37*
G36*
X035192Y026433D02*
X035326Y026299D01*
X034980Y025953D01*
X034846Y026087D01*
X035192Y026433D01*
G37*
G36*
X035334Y026292D02*
X035468Y026158D01*
X035122Y025812D01*
X034988Y025946D01*
X035334Y026292D01*
G37*
G36*
X035475Y026150D02*
X035609Y026016D01*
X035263Y025670D01*
X035129Y025804D01*
X035475Y026150D01*
G37*
G36*
X035609Y026016D02*
X035743Y025882D01*
X035397Y025536D01*
X035263Y025670D01*
X035609Y026016D01*
G37*
G36*
X035743Y024878D02*
X035609Y024744D01*
X035263Y025090D01*
X035397Y025224D01*
X035743Y024878D01*
G37*
G36*
X035609Y024744D02*
X035475Y024610D01*
X035129Y024956D01*
X035263Y025090D01*
X035609Y024744D01*
G37*
G36*
X035468Y024602D02*
X035334Y024468D01*
X034988Y024814D01*
X035122Y024948D01*
X035468Y024602D01*
G37*
G36*
X035326Y024461D02*
X035192Y024327D01*
X034846Y024673D01*
X034980Y024807D01*
X035326Y024461D01*
G37*
G36*
X035192Y024326D02*
X035058Y024192D01*
X034712Y024538D01*
X034846Y024672D01*
X035192Y024326D01*
G37*
G36*
X035050Y024185D02*
X034916Y024051D01*
X034570Y024397D01*
X034704Y024531D01*
X035050Y024185D01*
G37*
G36*
X034909Y024044D02*
X034775Y023910D01*
X034429Y024256D01*
X034563Y024390D01*
X034909Y024044D01*
G37*
G36*
X034768Y023902D02*
X034634Y023768D01*
X034288Y024114D01*
X034422Y024248D01*
X034768Y023902D01*
G37*
G36*
X034633Y023768D02*
X034499Y023634D01*
X034153Y023980D01*
X034287Y024114D01*
X034633Y023768D01*
G37*
G36*
X034492Y023626D02*
X034358Y023492D01*
X034012Y023838D01*
X034146Y023972D01*
X034492Y023626D01*
G37*
G36*
X034350Y023485D02*
X034216Y023351D01*
X033870Y023697D01*
X034004Y023831D01*
X034350Y023485D01*
G37*
G36*
X034216Y023351D02*
X034082Y023217D01*
X033736Y023563D01*
X033870Y023697D01*
X034216Y023351D01*
G37*
G36*
X033290Y023697D02*
X033424Y023563D01*
X033078Y023217D01*
X032944Y023351D01*
X033290Y023697D01*
G37*
G36*
X033156Y023831D02*
X033290Y023697D01*
X032944Y023351D01*
X032810Y023485D01*
X033156Y023831D01*
G37*
G36*
X033014Y023972D02*
X033148Y023838D01*
X032802Y023492D01*
X032668Y023626D01*
X033014Y023972D01*
G37*
G36*
X032873Y024114D02*
X033007Y023980D01*
X032661Y023634D01*
X032527Y023768D01*
X032873Y024114D01*
G37*
G36*
X032738Y024248D02*
X032872Y024114D01*
X032526Y023768D01*
X032392Y023902D01*
X032738Y024248D01*
G37*
G36*
X032597Y024390D02*
X032731Y024256D01*
X032385Y023910D01*
X032251Y024044D01*
X032597Y024390D01*
G37*
G36*
X032456Y024531D02*
X032590Y024397D01*
X032244Y024051D01*
X032110Y024185D01*
X032456Y024531D01*
G37*
G36*
X032314Y024672D02*
X032448Y024538D01*
X032102Y024192D01*
X031968Y024326D01*
X032314Y024672D01*
G37*
G36*
X032180Y024807D02*
X032314Y024673D01*
X031968Y024327D01*
X031834Y024461D01*
X032180Y024807D01*
G37*
G36*
X032038Y024948D02*
X032172Y024814D01*
X031826Y024468D01*
X031692Y024602D01*
X032038Y024948D01*
G37*
G36*
X031897Y025090D02*
X032031Y024956D01*
X031685Y024610D01*
X031551Y024744D01*
X031897Y025090D01*
G37*
G36*
X031763Y025224D02*
X031897Y025090D01*
X031551Y024744D01*
X031417Y024878D01*
X031763Y025224D01*
G37*
D32*
X014252Y009799D03*
X010748Y009799D03*
D33*
X010748Y012122D03*
X014252Y012122D03*
D34*
X013130Y012161D03*
X012815Y012161D03*
X012500Y012161D03*
X012185Y012161D03*
X011870Y012161D03*
D35*
X011634Y010980D03*
X013366Y010980D03*
D36*
X015880Y025927D03*
X015506Y026793D03*
X016254Y026793D03*
D37*
X019600Y028400D03*
D38*
X020600Y028400D03*
X021600Y028400D03*
X021600Y027400D03*
X020600Y027400D03*
X019600Y027400D03*
X022600Y027400D03*
X023600Y027400D03*
X024600Y027400D03*
X024600Y028400D03*
X023600Y028400D03*
X022600Y028400D03*
X025600Y028400D03*
X025600Y027400D03*
D39*
X023238Y021712D03*
X023238Y021515D03*
X023238Y021318D03*
X023238Y021122D03*
X023238Y020925D03*
X023238Y020728D03*
X021762Y020728D03*
X021762Y020925D03*
X021762Y021122D03*
X021762Y021318D03*
X021762Y021515D03*
X021762Y021712D03*
D40*
X022008Y021958D03*
X022205Y021958D03*
X022402Y021958D03*
X022598Y021958D03*
X022795Y021958D03*
X022992Y021958D03*
X022992Y020482D03*
X022795Y020482D03*
X022598Y020482D03*
X022402Y020482D03*
X022205Y020482D03*
X022008Y020482D03*
D41*
X021772Y016084D03*
X021772Y015828D03*
X021772Y015572D03*
X021772Y015316D03*
X023228Y015316D03*
X023228Y015572D03*
X023228Y015828D03*
X023228Y016084D03*
D42*
X022884Y016428D03*
X022628Y016428D03*
X022372Y016428D03*
X022116Y016428D03*
X022116Y014972D03*
X022372Y014972D03*
X022628Y014972D03*
X022884Y014972D03*
D43*
X020580Y022000D02*
X020580Y022520D01*
X019580Y022520D02*
X019580Y022000D01*
X018580Y022000D02*
X018580Y022520D01*
X017580Y022520D02*
X017580Y022000D01*
X016580Y022000D02*
X016580Y022520D01*
D44*
X016680Y023100D03*
X015220Y023780D03*
X015020Y023060D03*
X014960Y024860D03*
X015060Y026260D03*
X016500Y026180D03*
X016340Y025460D03*
X018020Y024740D03*
X018520Y024800D03*
X018180Y023940D03*
X019640Y023680D03*
X021460Y022340D03*
X022900Y022420D03*
X022580Y021380D03*
X023860Y021780D03*
X023540Y020340D03*
X025780Y021700D03*
X027060Y022580D03*
X026980Y023620D03*
X027780Y024180D03*
X029060Y024900D03*
X030660Y023400D03*
X031100Y023680D03*
X031620Y024033D03*
X031240Y025280D03*
X032820Y025360D03*
X033700Y025700D03*
X033460Y026140D03*
X033760Y026560D03*
X034360Y025920D03*
X034420Y025140D03*
X033940Y024500D03*
X033560Y023840D03*
X033380Y023060D03*
X035860Y023700D03*
X036500Y024420D03*
X035940Y025380D03*
X036980Y026100D03*
X035620Y027700D03*
X035060Y027780D03*
X034710Y028310D03*
X035680Y028700D03*
X033860Y028960D03*
X031840Y029340D03*
X032180Y027280D03*
X029960Y027480D03*
X029960Y026960D03*
X029060Y028600D03*
X029560Y029160D03*
X025640Y024720D03*
X024740Y024180D03*
X024100Y024340D03*
X020420Y025780D03*
X019640Y026000D03*
X013320Y027960D03*
X012560Y028560D03*
X011220Y028440D03*
X008660Y027960D03*
X007620Y027960D03*
X007700Y029400D03*
X009360Y026460D03*
X009720Y025560D03*
X011020Y025560D03*
X008420Y025560D03*
X006980Y024260D03*
X008420Y020760D03*
X009720Y020660D03*
X011120Y020760D03*
X010580Y018580D03*
X010580Y016660D03*
X010580Y015060D03*
X011300Y014660D03*
X012180Y014580D03*
X013580Y015060D03*
X014420Y014020D03*
X014980Y012820D03*
X017400Y011600D03*
X015000Y009460D03*
X012700Y010900D03*
X008820Y011700D03*
X008340Y010740D03*
X008820Y012900D03*
X006220Y015060D03*
X007220Y015460D03*
X007220Y016660D03*
X006220Y016660D03*
X006220Y018460D03*
X007220Y018460D03*
X012660Y016180D03*
X013580Y016660D03*
X016100Y015760D03*
X016120Y017760D03*
X018200Y018640D03*
X019940Y018900D03*
X021540Y018180D03*
X023300Y018100D03*
X021540Y016580D03*
X021060Y015380D03*
X020100Y015760D03*
X022740Y015460D03*
X023860Y016020D03*
X024500Y015620D03*
X021780Y013360D03*
X017620Y009080D03*
X027140Y009080D03*
X027800Y011520D03*
X030260Y012180D03*
X030140Y013060D03*
X030820Y013740D03*
X031220Y013420D03*
X032020Y011820D03*
X032500Y011820D03*
X032980Y011820D03*
X033460Y011820D03*
X033940Y011820D03*
X035060Y011480D03*
X035860Y011480D03*
X036660Y011480D03*
X037460Y011260D03*
X036660Y012280D03*
X035860Y012300D03*
X035060Y012300D03*
X034820Y012940D03*
X034000Y015020D03*
X033360Y016540D03*
X032660Y016520D03*
X030800Y016940D03*
X029000Y017920D03*
X030800Y018660D03*
X032140Y020640D03*
X031600Y020880D03*
X030500Y021220D03*
X027480Y021280D03*
X026280Y020000D03*
X027300Y019940D03*
X025960Y018160D03*
X029000Y015600D03*
X033360Y018660D03*
X033540Y020580D03*
X034900Y020580D03*
X036420Y021700D03*
X036900Y021780D03*
X037300Y021380D03*
X038020Y021700D03*
X036180Y022260D03*
X037760Y018500D03*
X038840Y018500D03*
X038860Y016700D03*
X037760Y016700D03*
X037760Y015100D03*
X038760Y015100D03*
X035280Y016780D03*
X031140Y010780D03*
X030740Y010300D03*
X038600Y009420D03*
X020500Y020180D03*
X017800Y020720D03*
X038160Y029420D03*
X038860Y027160D03*
M02*
